<?xml version="1.0" encoding="UTF-8"?>
<svg id="Layer_1" data-name="Layer 1" xmlns="http://www.w3.org/2000/svg" viewBox="0 0 666.67 570">
  <defs>
    <style>
      .cls-1 {
        stroke-width: 0px;
      }
    </style>
  </defs>
  <g id="SVGRepo_iconCarrier" data-name="SVGRepo iconCarrier">
    <path class="cls-1" d="M641.02,142.32c-2.36-2.24-4.85-4.38-7.48-6.39-28.52-21.93-72.39-21.93-160.14-21.93h-12.46c-38.46,0-57.68,0-75.6-4.37-9.84-2.4-19.33-5.76-28.28-10.01-16.28-7.75-29.88-19.37-57.07-42.62l-18.34-15.68c-9.11-7.79-13.67-11.69-18.46-15.08C242.55,11.6,217.22,2.63,190.52.5c-6.19-.5-12.64-.5-25.53-.5-29.42,0-44.13,0-56.38,1.98C54.68,10.68,12.49,46.75,2.31,92.86c-2.31,10.48-2.31,23.05-2.31,48.2v200.93c0,107.48,0,161.22,39.05,194.61,39.05,33.39,101.91,33.39,227.61,33.39h133.33c125.71,0,188.56,0,227.61-33.39,39.05-33.39,39.05-87.13,39.05-194.61v-62.76c0-75.02,0-112.53-25.65-136.92ZM533.33,249.38h-166.67c-13.81,0-25-9.57-25-21.37s11.19-21.37,25-21.37h166.67c13.81,0,25,9.57,25,21.37s-11.19,21.37-25,21.37Z"/>
    <path class="cls-1" d="M499.52,29.1c-5.12-.6-11.21-.6-23.4-.6h-142.78l12.33,10.92c22.2,19.66,30.73,27,40.59,31.86,5.72,2.82,11.79,5.05,18.09,6.64,10.85,2.74,22.75,2.89,54.14,2.89h11.15c33.41,0,60.35,0,81.66,2.37,5.32.59,10.44,1.35,15.37,2.32-6.19-29.55-33.19-52.44-67.15-56.4Z"/>
  </g>
</svg>