<?xml version="1.0" encoding="UTF-8"?>
<svg id="Layer_1" data-name="Layer 1" xmlns="http://www.w3.org/2000/svg" viewBox="0 0 666.67 666.66">
  <defs>
    <style>
      .cls-1 {
        fill-rule: evenodd;
        stroke-width: 0px;
      }
    </style>
  </defs>
  <g id="SVGRepo_iconCarrier" data-name="SVGRepo iconCarrier">
    <path class="cls-1" d="M387.63,615.73l-18.07,30.53c-16.11,27.21-56.34,27.21-72.45,0l-18.07-30.53c-14.02-23.68-21.02-35.52-32.28-42.07-11.26-6.55-25.43-6.79-53.77-7.28-41.85-.72-68.09-3.29-90.1-12.4-40.84-16.92-73.28-49.36-90.2-90.2C0,433.15,0,394.32,0,316.67v-33.33C0,174.22,0,119.66,24.56,79.58c13.74-22.43,32.6-41.28,55.02-55.02C119.66,0,174.22,0,283.33,0h100c109.11,0,163.67,0,203.75,24.56,22.43,13.74,41.28,32.6,55.02,55.02,24.56,40.08,24.56,94.64,24.56,203.75v33.33c0,77.66,0,116.49-12.69,147.11-16.92,40.84-49.36,73.28-90.2,90.2-22.01,9.12-48.25,11.68-90.1,12.4-28.35.49-42.52.73-53.77,7.28-11.26,6.55-18.27,18.39-32.28,42.07ZM200,325c-13.81,0-25,11.19-25,25s11.19,25,25,25h183.33c13.81,0,25-11.19,25-25s-11.19-25-25-25h-183.33ZM175,233.33c0-13.81,11.19-25,25-25h266.67c13.81,0,25,11.19,25,25s-11.19,25-25,25H200c-13.81,0-25-11.19-25-25Z"/>
  </g>
</svg>