<?xml version="1.0" encoding="UTF-8"?>
<svg data-name="Layer 1" xmlns="http://www.w3.org/2000/svg" viewBox="0 0 666.67 666.67">
  <defs>
    <style>
      .cls-1 {
        fill-rule: evenodd;
        stroke-width: 0px;
      }
    </style>
  </defs>
  <g id="SVGRepo_iconCarrier" data-name="SVGRepo iconCarrier">
    <path class="cls-1" d="M615.97,185.94L436.43,37.5c-60.48-50-145.72-50-206.2,0L50.7,185.94C18.35,212.69,0,253.24,0,295.54v231.49c0,75.17,57.8,139.64,133.33,139.64h66.67c36.82,0,66.67-29.85,66.67-66.67v-108.41c0-42.25,31.74-72.97,66.67-72.97s66.67,30.72,66.67,72.97v108.41c0,36.82,29.85,66.67,66.67,66.67h66.67c75.53,0,133.33-64.47,133.33-139.64v-231.49c0-42.31-18.35-82.86-50.7-109.6Z"/>
  </g>
</svg>