<?xml version="1.0" encoding="UTF-8"?>
<svg preserveAspectRatio="none" data-name="Layer 1" xmlns="http://www.w3.org/2000/svg" viewBox="0 0 666.77 600">
  <defs>
    <style>
      .cls-1 {
        fill-rule: evenodd;
        stroke-width: 0px;
      }
    </style>
  </defs>
  <g id="SVGRepo_iconCarrier" data-name="SVGRepo iconCarrier">
    <path class="cls-1" d="M113.99,7.96C141.01,1.95,173.19,0,210.4,0h53.92c33.44,0,64.66,16.71,83.21,44.53l27.08,40.63c6.18,9.27,16.59,14.84,27.74,14.84h168.51c53.25,0,96.41,42.04,95.9,96.17-.61,64.47-.1,128.96-.1,193.43,0,37.21-1.95,69.39-7.96,96.41-6.09,27.4-16.78,51.49-35.66,70.37s-42.97,29.57-70.37,35.66c-27.02,6.01-59.2,7.96-96.41,7.96h-245.87c-37.21,0-69.39-1.95-96.41-7.96-27.4-6.09-51.49-16.78-70.37-35.66-18.88-18.88-29.57-42.97-35.66-70.37-6-27.02-7.96-59.2-7.96-96.41v-179.2c0-37.21,1.95-69.39,7.96-96.41,6.09-27.4,16.78-51.49,35.66-70.37C62.5,24.74,86.59,14.04,113.99,7.96Z"/>
  </g>
</svg>