<?xml version="1.0" encoding="UTF-8"?>
<svg  data-name="Layer 1" xmlns="http://www.w3.org/2000/svg" viewBox="0 0 878.05 600">
  <defs>
    <style>
      .cls-1 {  
        stroke-width: 0px;
      }
    </style>
  </defs>
  <path class="cls-1" d="M790.24,0H87.8C39.51,0,0,39.51,0,87.8v424.39c0,48.29,39.51,87.8,87.8,87.8h702.44c48.29,0,87.8-39.51,87.8-87.8V87.8c0-48.29-39.51-87.8-87.8-87.8ZM418.54,497.56h-251.71c-27.8,0-49.76-30.73-49.76-60,1.46-43.9,46.83-70.24,95.12-92.2,33.66-14.63,38.05-27.8,38.05-42.44s-8.78-27.8-20.49-38.05c-19.02-17.56-30.73-43.9-30.73-73.17,0-55.61,33.66-102.44,92.2-102.44s92.2,46.83,92.2,102.44c0,29.27-10.24,55.61-30.73,73.17-11.71,10.24-20.49,23.41-20.49,38.05s4.39,27.8,38.05,40.98c48.29,20.49,93.66,49.76,95.12,93.66,2.93,29.27-19.02,60-46.83,60ZM760.98,395.12c0,16.1-13.17,29.27-29.27,29.27h-131.71c-16.1,0-29.27-13.17-29.27-29.27v-43.9c0-16.1,13.17-29.27,29.27-29.27h131.71c16.1,0,29.27,13.17,29.27,29.27v43.9ZM760.98,234.15c0,16.1-13.17,29.27-29.27,29.27h-219.51c-16.1,0-29.27-13.17-29.27-29.27v-43.9c0-16.1,13.17-29.27,29.27-29.27h219.51c16.1,0,29.27,13.17,29.27,29.27v43.9Z"/>
</svg>