<?xml version="1.0" encoding="UTF-8"?>
<svg id="Layer_1" data-name="Layer 1" xmlns="http://www.w3.org/2000/svg" viewBox="0 0 733.33 770">
  <defs>
    <style>
      .cls-1 {
        fill-rule: evenodd;
        stroke-width: 0px;
      }
    </style>
  </defs>
  <g>
    <path class="cls-1" d="M392.83,0c34.64,0,64.4,23.85,70.91,56.83l2.9,14.67c11.39,57.65,72.89,92.08,130.08,72.81l14.56-4.9c32.72-11.02,68.9,2.04,86.22,31.12l26.16,43.93c17.32,29.08,10.89,65.99-15.31,87.96l-11.65,9.77c-45.8,38.39-45.8,107.24,0,145.63l11.65,9.77c26.2,21.96,32.63,58.87,15.31,87.96l-26.16,43.93c-17.32,29.08-53.5,42.14-86.23,31.12l-14.55-4.9c-57.19-19.26-118.7,15.16-130.09,72.82l-2.9,14.67c-6.52,32.98-36.28,56.83-70.91,56.83h-52.32c-34.64,0-64.4-23.85-70.91-56.83l-2.9-14.68c-11.39-57.65-72.9-92.07-130.09-72.81l-14.55,4.9c-32.72,11.02-68.9-2.04-86.22-31.12l-26.16-43.92c-17.32-29.08-10.9-65.99,15.31-87.96l11.66-9.77c45.8-38.39,45.8-107.24,0-145.63l-11.66-9.77c-26.2-21.96-32.63-58.87-15.31-87.95l26.16-43.93c17.32-29.08,53.5-42.14,86.22-31.12l14.55,4.9c57.19,19.26,118.69-15.16,130.08-72.81l2.9-14.67C276.11,23.85,305.87,0,340.51,0h52.32ZM366.67,495c60.75,0,110-49.25,110-110s-49.25-110-110-110-110,49.25-110,110,49.25,110,110,110Z"/>
  </g>
</svg>