<?xml version="1.0" encoding="UTF-8"?>
<svg preserveAspectRatio="none" data-name="Layer 1" xmlns="http://www.w3.org/2000/svg" viewBox="0 0 79.94 86.22">
  <defs>
    <style>
      .cls-1 {
        fill: #231f20;
        fill-rule: evenodd;
        stroke-width: 0px;
      }
    </style>
  </defs>
  <path class="cls-1" d="M31.03,81.59c-.09.15-.25.18-.44.16.06-.21-.07-.27,0-.49l.29.06c-.18.18-.14.25.15.27ZM18.18,76.85c.24.04.57.58.72.14-.26-.12-.54-.43-.72-.14ZM17.22,67.85c-.17-.13-.35-.2-.54-.14-.03.28.32.29.54.14ZM4.92,56.58l-.18-.43c-.4.01-.1.7.18.43ZM5.34,55.42c.63-.23-.24.6.43.41-.02-.23-.03-.31-.02-.67-.16.08-.42.13-.41.26ZM8.68,53.74c-.06-.19-.18-.29-.37-.3-.3.2.06.33.37.3ZM9.17,52.7c-.14-.3-.27-.61-.04-.82-.38.27-.23.06-.51,0-.3.3.22.7.55.82ZM5.62,40.24c-.07.29.09.43.35.51-.09-.18-.06-.45-.35-.51ZM6.58,35.03c-.49.03.03-.36-.28-.4-.02.38-.63.88-.21,1.07.19-.36.02-.55.49-.67ZM7.25,20.27c.14.16-.25.37-.06.53.28-.02.04-.26.31-.48-.27-.33-.82-.29-.61.05.11-.06.23-.11.36-.11ZM21.85,7.99c-.11.04-.22.07-.28-.12-.32.29-.7.44-.57.73.19-.4.75-.32.85-.61ZM30.38,4.39c-.21.1-.37.23-.37.47.24-.07.6-.05.37-.47ZM38.85,2.2c.18.05-.04.13-.09.24.71-.15,1.07-.14,1.65-.26-.47-.21-1.14-.34-1.56.02ZM45.87,3.31c-.17.46.49.56.48.07-.24-.02-.33.18-.48-.07ZM46.47,5.47c.05.11.57.42.57-.02-.33.08-.37-.15-.57.02ZM35.85,8.33v-.1c-.15.05-.29.1-.41.16l.41-.06ZM.55,48.31c-.24-1.8-.44-3.82-.55-5.92-.07-2.1-.05-4.29.22-6.38l.36.05c-.19-.08-.54-.8-.05-.5-.44-.48.13-1.27.06-1.77.55,1.34.43,3.33-.03,4.6.43-.23.51.94.08.67.59,1.03.26,1.84.65,2.93-.17-.1-.29-.1-.36.09.48.3.48.8.28,1.21-.08.26.25.18.26.36.13-.49.89-1.71,1.29-.69-.42.15-.09-.3-.37-.26-.49.27-.11.89.29.98.36-.02-.21-.66.33-.55.19.82.08,1.16.58,1.47-.45.61.01,1.73.47,1.97-.23.33-.36.41,0,.71-.11-.06-.33,0-.38-.12-.3.42-.26.6-.05,1.09-.29-.06-.57-.17-.71.13.22-.06.57.22.22.52.43.24.73.43.7.96-.42.03-.5-.35-.39-.65-.21.03-.22.16-.45.19.3.47.33.53.39,1.13.42,0,.11-.32.12-.5.36-.13.15.43.56.24-.12.26-.69.33-.56.7.57-.05.08-.03.26.5.09-.09.13-.21.16-.32,0,.38.03,1.01.09,1.58.59.1,0,.35-.14-.05-.09.05-.09.12-.2.16-.11.41.2.49-.11.81.21.19.61-.19.37-.41.46.04-.09.78.55.49-.02.17-.4.62,0,.68.02.29-.27,0-.45.16.11.28.56.03.65.35-.28,0-.48-.15-.81-.09.09.32.46.19.57.48-.22.09-.05.29-.38.35.23-.43-.07-.43-.38-.66-.22.23.21,1.23.63,1.26-.09.21.27.53-.11.66-.19-.23.08-.34-.11-.57-.2.05-.18.15-.15.27-.37-.18-.06-.8-.43-1.05-.1-.11-.13.09-.33.13-.42-.11.04-.78-.5-.63.32-.49-.38-1.13-.65-1.51.41-.52-.08-1-.09-1.58-.51.32-.08.6-.02,1.21-.48-.07-.08-.72-.44-1.08.54-.03-.26-.66.45-.62-.37-.46-.32-.66-.19-1.23-.98-.2-.64-1.61-1.12-1.93ZM2.52,46.96c-.46.17-.29.95.06,1.1.19-.26-.05-.74-.06-1.1ZM2.49,46.78c.16-.16.12-.65-.32-.51.04.23.13.43.32.51ZM3.48,53.16c-.06-.13-.06-.34-.23-.32,0,.15-.34.19-.12.43l.34-.11ZM3.73,52.32c.06-.5-.8-.4-.58-.7.12-.04.34.32.37,0-.36.02-.01-.3-.12-.44l-.46.12c-.34.59.32.85.79,1.03ZM2.96,46.63c.05.32.04.72.36.77.05-.35.09-.69-.36-.77ZM2.99,45.99c0,.24.1.38.41.31,0-.23-.1-.37-.41-.31ZM2.4,44.96c.12-.29.42.06.72-.06.01-.55-.11-.98-.57-1.13-.07.66-.15.76-.15,1.19ZM2.4,46.15c-.07-.4.04-.7.37-1.04-.4-.14-1.18.94-.37,1.04ZM1.65,44.66c.1.34.07.87.19.72.19-.23.33-.65-.19-.72ZM35.84,82.1c-.4.21-.52-.15-.79.06.05.25.55.02.57.29-.65.38-1-.5-1.63-.53-.03.14-.03.34-.14.35-.08-.17-.12-.38-.23-.51-.7.22-1.88-.5-2.52.09.13.19.71.21.3.55.48.13.12-.34.38-.42,0,.1.06.15.18.15,0,0,0,0,0,.01,0,0,0,0,0,0,0,0,0,0,0,0-.19.48.65.18.94.48.27-.12-.13-.38.17-.46.16.43.57.56.59.08-.08.17.8.04.45.42,1.07.04.95.25,1.79.17-.05-.43,0-.3-.04-.72ZM17.65,75.83c-.11.17-.27-.09-.38.05.16.04.04.55-.17.46-.05-.25-.29.04-.62.08.58.02,1.25.54,1.6.23-.46.09-.81-.48-.43-.82ZM12.84,55.82c.16.14.1.32.29.34,0-.06.05-.12.17-.18-.09-.16-.15-.34-.37-.29.03-.07.04-.15.12-.22-.34.15-.8-.35-.44-.59.05.07.07.19.21.14l-.1-.19c-.29.05-.28.15-.61.13.33.28.33.49.62.93.05-.02.08-.05.1-.07ZM8.95,55.03c.34.32.16.7.42.88.02-.36-.01-.77-.42-.88ZM4.48,57.08c-.21.59-.62-.02-.88.39.39-.15.52.19.86.14-.31-.25.22-.3.02-.52ZM5.46,55.08c-.13-.23.1-.37.17-.55-.15.07-.39-.34-.4-.04.47.23-.26.46-.25.68.16-.03.26.04.48-.09ZM5.01,53.9c0,.12-.08.22-.28.29.23.2.14.28.08.55.37-.15.22-.83.2-.84ZM9.58,51.73c-.02-.28.85-.81.01-.73.01.16.2.1.3.15-.21.12-.8.5-.31.58ZM6.65,21.92c-.27.05-.82-.16-.66-.06.02.31.59.3.66.06ZM9.72,17.48c.21-.31.65-.32.45-.73-.23.05-.61.32-.7-.09.09.36-.86.6-.54.67.27-.08.85-.37.8.15ZM.81,8.86c-.05-.19-.05-.17-.22-.85-.28.49-.51.99-.08,1.4.06-.18.52-.4.31-.55ZM29.29,4.07c-.16-.08-.38,0-.48-.24.44-.18,1.28.31.95-.27-.09.31-.61.02-.76-.16-.04.29-.85.91-.59.8.37-.35.79.19.88-.13ZM31.36,3.53c.34.23.38.91-.19.91,0,.42.33.11.51.12-.07-.55.23-1.11-.21-1.43.08.22-.08.26-.11.4ZM33.28,3.76c.18-.14-.26-.44-.24-.81l.39-.07.1.59c.26-.42.84-.38.56-.82.17.17.41.03.47-.19-.77-.05-.92.42-1.56.26.01.15.02.28-.15.27.32.27.09.74.43.77ZM37.19-2.4c-.21-.17-.73.06-.59-.56-.78.12.35.98.59.56ZM55.11,9.89c.32-.53-.18-.62-.43-.84.01-.13.02-.25-.04-.3-.02.04-.05.06-.08.09,0-.04-.02-.07,0-.11l-.1.22c-.05-.01-.11-.03-.13.07.02.02.04.03.07.04-.01.03-.02.05-.03.09.25.08.19.33.26.51.05-.16.52-.03.31-.26-.23.08-.27-.03-.27-.18.13.07.28.15.43.27-.07.17-.19.37,0,.4ZM59.76,4c.36-.28.4.05.7-.18-.17-.08-.2-.21-.18-.36.38,0,.33.14.67.35.13-.19.02-.29.13-.47.25.33.66.09.94.11-.3-.13-.16-.4-.46-.53-.5.28-.7,0-1.4-.19-.08.23-.24.15-.36.22.24.14.24.37.32.56-.12.03-.56.35-.37.49ZM14.54,74.58c-.17-.25-.06-.56-.12-.83-.5,0-.77-.75-1.46-1.01.41.26.24.63.23.97.47-.01.49.36.93.27-.14.17-.09.25.08.22-.19.23-.37.45-.2.6.38-.14.78.09,1.16-.04-.01.19-.08.39-.04.56.09-.14.19-.19.29-.24-.15-.09-.12-.23.05-.41-.33-.3-.62-.04-.93-.08ZM8.85,53.85c.08.29.33.61-.2.78.06.2.32.08.46.16-.16-.17.17-.24.24-.36-.19-.16-.06-.79-.5-.58ZM53.77,4.55c.23-.94.72-1.19,1.31-1.18-.25.55.4.61.36,1.04.16-.49.46-.17.51-.44-.01.18.04.33.14.45.2-.56.73-.09,1.13-.03.18-.41.03-.36.3-.66-.29-.55-1.25-1-1.51-1.3-1.12.26-1.85-1.79-3.21-1.88-.9-.06-1.61.87-1.68,2.39.37.92,1.4,2.01,2.65,1.6ZM17.54,8.48c-.03-.15.04-.26.15-.37-.02.01-.02.01-.04.02-.18-.13.34-.53.6-.53.09.17-.55.51-.14.52.05.14-.07.08-.18.12.05.03.1.07.15.16l-.25.16c0-.25-.07-.28-.3-.09ZM17.75,8.07c.04.06.08.1.13.13.02-.15.04-.23-.13-.13ZM29.98,2.75c-.2.14-.81,0-.61.41.27-.09.68-.08.61-.41ZM37.02,8.43c.21-.03.39-.1.48-.28-.17-.22-.44.02-.48.28ZM53.69,7.7l.43.17c.27-.29-.42-.57-.43-.17ZM53.04,12.37c.18.1.33.08.47-.06.07-.35-.28-.19-.47.06ZM55.29,14.65c.47-.15.63.49,1.02.44-.06.13-.19.28-.12.35.65-.54-.71-1.42-.9-.79ZM59.45,16.16c.11.25.27.43.53.24-.18-.04-.34-.44-.53-.24ZM64.75,19.75c-.15-.26-.37-.24-.6-.11.19.07.36.27.6.11ZM67.76,24.11c.32-.37.23.28.49.08-.25-.28-.18-1.06-.61-.9.12.39.37.4.12.82ZM77.38,34.61c-.18.21.15.22.12.56.43.05.78-.37.39-.47-.03.12-.08.24-.18.33-.21-.02-.09-.44-.34-.42ZM76.25,53c.15.41-.31.76-.18,1.03.05-.11.1-.2.29-.11.02-.43.18-.8-.11-.92ZM68.04,69.91c-.39.61-.66.85-.98,1.35.48-.19,1.05-.57,1.09-1.12-.16.09-.06-.12-.11-.24ZM66.1,72.67c.82.17.12.1.29-.27.1-.23.56-.23.34-.65-.22.43-.52.42-.63.92ZM63.75,74.65c.24-.24.88-.8.71-.87-.35.27-.65.54-.71.87ZM62.01,74.61c.19-.15.11-.36.39-.29-.21-.44-.74-.05-.39.29ZM57.92,7.76c.08.65.76.65,1.18,1.05.13-.59-.37-.48-.84-.87.38-.29.56.46,1.08.45-.36.41.65.29.12.76.59.06.69.24,1,.74.83-.55,1.59.69,2.16.57,1.44,1.11,3.01,2.38,4.58,3.8,1.54,1.44,3.07,2.99,4.36,4.67l-.29.22c.2-.08.95.19.39.32.65.03.81.99,1.21,1.3-1.33-.56-2.66-2.05-3.23-3.27-.14.47-1.03-.31-.53-.42-1.15-.32-1.48-1.11-2.53-1.62.2-.05.28-.14.19-.32-.55.13-.9-.23-1.06-.65-.13-.24-.3.05-.44-.07.25.43.58,1.83-.42,1.4.19-.4.27.15.45-.08.16-.54-.55-.71-.9-.49-.24.27.61.32.16.62-.71-.44-.87-.77-1.45-.63-.11-.75-1.23-1.21-1.72-1.07-.08-.4-.03-.54-.5-.51.12-.03.24-.23.36-.19-.09-.51-.24-.61-.74-.81.24-.16.52-.28.41-.59-.12.2-.55.25-.52-.21-.48.14-.82.21-1.17-.18.28-.32.61-.11.74.18.13-.17.05-.27.19-.45-.54-.12-.61-.15-1.08-.52-.29.3.15.3.27.44-.16.34-.41-.19-.56.22-.1-.27.25-.72-.1-.89-.37.44-.04.07-.54-.17,0,.13.05.24.12.34-.27-.27-.73-.69-1.18-1.06-.49.35-.24-.26.14-.06.03-.09-.02-.15.03-.26-.21-.37-.49-.2-.5-.66-.29.02-.29.56.03.55-.35.29-.49-.61-.74.04-.11-.14-.16-.72-.48-.48-.22-.19.19-.2.2-.44-.28-.12-.42.37-.71.21.2-.2.45-.24.64-.5-.29-.16-.46.19-.74.07.1-.22-.17-.24.02-.51.14.47.36.25.74.19,0-.32-1.01-.72-1.34-.45-.08-.21-.57-.19-.39-.55.3.03.18.3.48.32.11-.18.02-.24-.08-.29.39-.13.61.53,1.05.44.15,0,.03-.15.15-.33.38-.22.52.57.8.09.12.57,1.06.53,1.53.6ZM63.79,13.44c.03.29.22.7.64.38-.31-.17-.66-.56-.64-.38ZM63.22,14.68c.38.4.77.62,1.2.39-.42-.52-.43-.65-.73-.94.11.29-.34.25-.46.55ZM62.85,13.3c.33.23.47.52.47,1,.38-.18.17-1.5-.47-1ZM62.33,12.91c0,.23.37.54.59.14-.2-.13-.39-.21-.59-.14ZM62.04,13.89c.17.17.33.2.51-.07-.17-.17-.34-.2-.51.07ZM61.36,12.07c.05.31.56.49.82.74.2-.44-.47-.88-.82-.74ZM61.32,13.06c.22.28.42.55.8.29-.27-.19-.54-.48-.8-.29ZM57.54,9.87c.31.4.84-.28.9.09-.05.11-.47.02-.26.27.24-.27.22.21.4.23l.24-.41c-.18-.66-.83-.37-1.29-.17ZM57.12,9.1c.13.05.28.2.38.07-.11-.11.11-.37-.22-.39l-.17.32ZM13.78,11.51c.13-.44.47-.26.52-.6-.21-.14-.4.37-.61.2.19-.72,1.07-.35,1.53-.78-.07-.12-.22-.26-.14-.35.18.06.35.19.53.2.34-.65,1.68-.97,1.72-1.85-.22-.04-.65.36-.6-.17-.44.25.16.33.03.57-.07-.07-.15-.07-.23.02-.2-.53-.59.31-1.02.3-.1.28.36.18.21.45-.42-.18-.8,0-.47.36-.07-.18-.59.54-.61.02-.79.73-.85.5-1.38,1.15.34.26.2.22.54.48ZM31.08,3.09c-.04-.19.25-.13.24-.3-.14.09-.42-.36-.2-.45.21.14.18-.24.38-.5-.42.39-1.27.5-1.3.97.27-.39.91-.23.88.28ZM37.44,3.1c.64.1.85.21,1.44-.08-.1-.15-.1-.44-.3-.47.08-.14.18-.05.48-.14.09.45.3.74.53,1,.05-.05.1-.1.14-.15-.01.08-.02.15-.04.21.05-.01.1-.04.16-.08-.01-.08-.03-.15-.02-.25.13-.19.25-.13.35-.05.05-.04.09-.06.13-.06-.03,0-.07,0-.1,0,.08-.23.3-.27.48-.38,0-.08.02-.15.03-.23.37.14.36-.42.59-.11.01-.13,0-.22-.05-.28-.08,0-.16.02-.26.05.02-.05.04-.09.06-.13-.01,0-.02-.01-.03-.01.02-.35.67.12.7-.22.04.02.06.04.08.06.17-.19-.12-.52.29.09-.16.11-.3.13-.42.14-.09.05-.19.07-.25.06.09.16.08.45.27.49.13-.03.1-.3.12-.48.37.12.71.46.8-.2.48.56,1.08.25,1.54.48.03-.03.05-.07.06-.1-.06,0-.12-.01-.18-.02-.03-.06.07-.09.2-.11-.01-.06-.05-.1-.15-.14.29-.36.61.08.71-.04.06.02.07.09.07.17.11,0,.21,0,.28,0-.08.06-.18.09-.29.12,0,.02,0,.05,0,.07.32-.02.36.33.51-.06.08.48.65.51.75.95-.17-.08-.68-.67-.69.03-.11-.03-.05-.23-.05-.37-.19.07-.38.15-.61.17-.12-.24-.26-.46-.42-.65-.25,0,.11.22-.05.48-.2-.48-.4.19-.47.24-.01-.06-.03-.11-.03-.17,0,.15,0,.19.03.17.06.22.22.41.44.54.38-.06.76-.09,1.08-.04.11,0,.11-.21.15-.34.23.19.26.29.1.62.05,0,.08,0,.12,0,0,0,0,0,0,0h.06c.24,0,.31-.05.46.21.12-.03.22-.12.25-.33,1.99.58,3.66.64,5.1.81-.4.26.25.29-.03.75.09-.04.19-.07.31-.03.03-.23-.33-.2-.13-.55.38.35.63.3.6.95-.25.28-.32-.69-.53.08-2.21-.69-3.65-1.15-5.81-1.54-.04.15-.13.28-.28.25.06-.15.04-.22.02-.29-.13-.02-.25-.05-.38-.07,0,.04,0,.1,0,.19-.02-.1-.05-.16-.09-.2-.11-.02-.24-.04-.36-.06-.28.09-.62.29-.86-.05-.05.08-.07.22-.14.28-.03-.18-.31-.09-.4-.21-.07.02-.15.04-.22.05-.07.07-.13.16-.14.33-.25.06-.72-.2-.84.07.08-.12.23-.24.41-.35-1.3.01-2.74-.52-3.81-.07.04-.18.13-.31.18-.49-.29-.08-.34.13-.56.14-.25-.64-1.31.08-1.62-.26.27.12.44-.06.55-.4ZM42.62,3.08s0,0-.01,0c-.05.06-.17.11-.2.23.13.01.27.03.22-.23ZM42.32,3.08s.03,0,.05,0c-.02,0-.04,0-.05,0ZM40.33,3.03s.09.06.13.13c0,0,.02-.01.03-.02,0-.09-.08-.11-.15-.11ZM51.93,11.65c-.47.01-.61-.39-.92-.33.24.27.56.54.92.33ZM54,6.14c-.17.38-.5.23-.7.51.4-.04.05.37.35.38-.27-.57.45-.43.35-.89ZM55.52,9.66c-.08-.09-.1-.22,0-.4-.31.02-.29-.1-.45-.33-.16.37.43.74.46.73ZM77.48,33.01c-.24-.2-.63.2-.51.42.16-.23.69-.47.51-.42ZM90.16,37.93c.08.17-.08.65.17.61.17.1.15.09.76.44-.15-.55-.34-1.06-.93-1.05ZM78.94,50.96c-.07.41-.11.22-.25.05.01.18-.23.21-.06.29.3-.28.08.41.27.47.19-.19.26-.84.05-.8ZM74.12,61.35c-.01.51-.69.43-.53.71.17-.05.28-.26.5-.17-.18.44-1.12.69-.48.86-.15-.29.42-.45.65-.43-.17-.23-.04-1.24-.15-.98ZM72.57,72.22c.27-.03.47-.55.81-.02.47-.64-.94-.44-.81.02ZM65.5,70.6c.61-.87-.25-.15-.37.02.12-.03.24-.05.37-.02ZM52.18,84.26c.06-.1.15-.64-.08-.6-.06.45-.32.25-.37.62.18-.06.29,0,.38.13-.28.26-.34.13-.72.22.04.22.19.22.24.43-.41-.06-.53.41-.74.59.3-.12.4.17.7.05.16-.55.49-.5,1.12-.85-.1-.21.07-.27.09-.41-.27.08-.43-.09-.63-.17ZM33.45,2.37c.44-.02.47-.4.71-.6.29.06.44.35.67.51.35-.35,1.08-.01,1.75-.31-.47.1-.61-.27-.85-.52-.33.34-.6.09-.85.47-.02-.22-.11-.24-.21-.09-.02-.3-.06-.58-.28-.57-.17.37-.62.49-.79.85-.12-.14-.22-.33-.37-.42.03.16,0,.27-.04.37.17-.05.25.08.25.32ZM52.43,11.72c-.18-.1-.29.17-.44.21.23,0,.05.29.09.42.25-.02.6.51.76.06-.26-.15-.66-.2-.41-.69ZM55.94,79.04c.5.83.33,1.35-.09,1.76-.21-.56-.71-.15-.99-.48.23.46-.21.44-.05.67-.12-.14-.26-.21-.42-.22.25.54-.45.59-.78.82.17.42.23.28.25.67.59.18,1.59-.17,1.99-.15.6-.98,2.57-.05,3.6-.94.67-.59.52-1.75-.5-2.88-.91-.39-2.41-.43-3.01.74ZM72.12,19.19c.2-.11.15-.25.33-.36-.12-.14-.26-.22-.43-.18.2.21.18.29-.07.3l.17.24ZM78.39,30.78c-.15-.19-.03-.81-.44-.59.11.26.11.68.44.59ZM74.66,54.72l-.15.44c.3.26.55-.45.15-.44ZM63.19,66.38c.25-.16.22-.38.08-.61-.06.2-.26.37-.08.61ZM58.98,69.6c.39.3-.27.25-.06.49.27-.27,1.05-.23.87-.66-.39.14-.38.39-.81.17ZM48.44,79.9c-.02.43.41.76.49.37-.12-.03-.24-.07-.34-.16,0-.21.44-.11.4-.36-.22-.17-.21.16-.55.15ZM29.53,79.44c.11.04.21.09.13.28.43,0,.81.14.91-.16-.4.17-.77-.27-1.04-.12ZM21.38,76.3c-.23-.11-.48-.37-.59.1.22.07.43.08.59-.1ZM13.26,72.24c-.63-.36-.89-.61-1.4-.91.21.47.62,1.02,1.17,1.03-.1-.15.11-.07.23-.12ZM11.67,70.82s0-.05,0-.07c-.04-.03-.08-.06-.14-.09.12-.19.2-.37.25-.54-.2-.15-.36-.44-.2-.71-.02,0-.03,0-.05,0-.11.02-.1.15-.36.26.03-.2-.2-.43-.41-.41,0-.14.14-.06.29-.09,0-.04.02-.08.04-.13-.23.03-.49.25-.74.45-.17-.36-.55.04-.49-.34-.2.17-.22.32-.06.46-.26.23-.39-.56-.65-.34-.1-.3.37-.17.47-.03.05-.18.26-.37.15-.54-.12-.07-.28.14-.42.25-.16-.31-.17-.72-.55-.53.14.12.28.26.41.42-.04.11-.3-.1-.55-.33,0,0-.02,0-.02.02,0-.01,0-.03,0-.04-.12-.11-.24-.23-.33-.3.11.01.22.06.32.12-.08-.56-.6-.77-.74-1.21-.2.02-.3.1-.22.3-.45.05-.38-.49-.53-.47-.06-.1.12-.2.22-.3-.24-.21-.02-.49-.4-.32.28-.4-.1-.81.14-1.2.06.17,0,.96.51.47.05.1-.13.2-.23.29.19.09.38.16.55.31-.09.25-.14.5-.17.75.18.18.08-.23.37-.3-.17.4.24.23.42.17.06-.28-.15-.2-.31-.37.2-.23.43-.12.48.05.02-.17,0-.35-.07-.53-.08,0-.16.02-.25.1-1.08-1.76-2.29-2.93-3.24-4.01.47.07,0-.39.52-.53-.09-.03-.19-.07-.25-.19-.18.15.11.37-.27.49-.05-.51-.27-.64.19-1.11.38-.04-.23.73.45.3.8,1.35,1.4,2.38,2.12,3.44.13-.06.27-.08.35.03-.13.06-.18.11-.21.17.07.11.15.22.22.33.03-.03.06-.07.12-.13-.05.07-.06.13-.07.18.08.11.16.22.24.33.28.13.65.24.52.7.02.03.04.05.06.08.81.31,1.38,1.05,1.94,1.79.07-.02.15-.05.23-.14.19.11.34.47.54.52-.15.01-.34-.01-.53-.06.44.56.89,1.08,1.47,1.31-.04.03-.09.04-.13.06.21.23.34.46-.23.11-.04.02-.07.03-.11.05.15.26.34.15.5.3-.04.1-.04.18-.02.26.12.03.24.06.36.08.02.09,0,.19-.06.3.04.03.09.07.13.1.38-.26.54-.11.86.09-.23.08-.45.04-.68.03.21.14.38.29.38.46-.11-.28-.36-.27-.67-.1-.09-.12-.16-.22-.22-.31-.33.07-.27-.21-.32-.36-.04-.03-.07-.06-.11-.09-.02,0-.03,0-.05,0-.08.11.06.19.13.28-.22.13-.43-.01-.64-.05,0,.04,0,.08.04.11-.1.02-.14-.02-.23-.1-.02,0-.05,0-.07.01ZM12.14,70.39s-.04-.02-.06-.03c-.02.07-.06.15-.09.23.07-.1.11-.15.15-.2ZM8.54,66.95c.11-.1.13-.14.1-.14.01-.02.02-.05.03-.07-.03.03-.06.06-.1.08.03-.01.06-.02.08-.02-.03.05-.06.1-.1.14ZM10.09,67.73s-.03-.02-.05-.03c-.24.27-.3-.44-.57-.02.12.19.26.26.41.28.07-.07.17-.15.2-.22ZM10.41,70.44c-.13.83-.09.13.28.28.23.09.25.54.66.3-.44-.2-.45-.5-.95-.58ZM9.56,64.82c.03-.11-.14-.69-.44-.36.3.16.18.36.44.36ZM19.37,69.81l-.06.08c.14.06.27.11.4.15l-.35-.23ZM69.43,15.54c.13-.21-.39-.38-.23-.59.73.16.41,1.05.86,1.48.12-.08.25-.24.34-.16-.06.18-.17.36-.17.54.67.3,1.06,1.63,1.93,1.62.03-.23-.39-.63.14-.61-.27-.42-.32.17-.57.06.06-.07.06-.15-.03-.23.52-.22-.34-.57-.35-1-.28-.09-.16.37-.43.23.16-.43-.05-.79-.39-.45.17-.08-.56-.56-.06-.61-.77-.75-.54-.82-1.22-1.32-.25.36-.2.21-.45.57.44.11.28.46.63.49ZM78.1,31.9c.19-.05.14.24.32.22-.09-.14.34-.44.43-.22-.13.22.24.17.52.36-.42-.4-.57-1.24-1.03-1.25.4.25.27.9-.23.89ZM79.94,45.53c-.03.11-.22.07-.36.07.04.31-.31.38.08.5-.47.11-.47.67-.91.8.07-.17.64-.71-.06-.69.03-.11.23-.06.37-.07-.08-.19-.17-.37-.2-.6.23-.13.44-.28.63-.45-.01-.25-.21.12-.48-.03.47-.22-.21-.38-.27-.45.06-.02.11-.03.17-.04-.15,0-.19.02-.17.04-.06.02-.12.05-.17.08-.04.08-.1.15-.21.18-.03.04-.06.08-.08.12.1.1.4.06.31.3-.26,0-.36.02-.45,0-.03.1-.05.21-.06.31.08-.06.17-.1.38-.04-.03.54-.34,1.77-.87,1.63.02.13.29.11.47.15,0,.35-.47.23-.76.29.16-.36-.32-.32-.16-.68-.66.49-.16.85-.42,1.44.4,0,.68-.14.68-.56.16.17.14.44.15.69-.21-.04-.27.08-.49.02-.19.36.2.4.14.69-.21-.02-.23-.16-.46-.17,1.3,1.36-.57,1.99.15,3.4-.19-.4-.48-.31-.68-.76-.15-.01-.16.15-.04.18-1.03-.33-.76.83-.75,1.43-.35-.23-.25-.63-.36-.96-.29.09-.55.58.06.68-.26.23-.15.38-.21.7-.26.19.09-.49-.21-.54-.54.08-.58,1.05-.61,1.14-.06.23-.11.44-.11.34.03.51-.5.56-.64.79.17.06.21.16.34.23-.04.05-.13.06-.23.06.06.1.11.2.05.3-.01.02-.03.04-.04.07.02,0,.03,0,.05,0-.03.03-.06.04-.09.06-.07.11-.14.24-.22.38,0,0,0,.01,0,.02,0,0,0,0-.01,0-.2.38-.41.84-.52,1.35.05-.06.3.12.18.38.1.03.15-.03.26.02.35-.23.17-.5.63-.53-.03-.29-.58-.26-.55.06-.31-.34.58-.52-.08-.73.13-.12.72-.19.46-.5.18-.23.21.18.45.18.11-.29-.39-.4-.25-.69.21.19.26.43.54.61.15-.3-.21-.45-.1-.74.22.08.23-.18.51,0-.46.17-.23.37-.15.75.32-.02.67-1.05.38-1.36.2-.09.16-.58.53-.41-.01.3-.29.19-.3.49.18.1.24,0,.29-.1.15.38-.49.63-.39,1.07,0,.15.16.02.33.13.24.36-.55.55-.05.81-.56.15-.47,1.09-.52,1.56-.65.11-.61.79-.99,1.23.59.1.46-.4.83-.88.31.37-.43.59-.4,1.1-.43-.34-.25.66-.75.16-.03.59-.21.71-.68,1.04.59.8-.6,1.63-.46,2.18-.03.04-.06.09-.09.13.08.02.16.03.24.01.07.12-.02.26.2.36-.23.04-.4-.06-.55-.21-.25.36-.51.73-.78,1.11.12.09.27.2.47.18-.13.11-.03.21.08.3-.57.34-.34.78-.92,1.28-.11-.2-.04-.46.2-.47-.45-.1-.15-.42-.17-.83-.69.95-1.44,1.93-2.23,2.91-.71.84-1.45,1.68-2.23,2.49-.05.13-.08.25-.02.39-.17.06-.23-.16-.1-.24,0,0-.01,0-.02-.01-.67.69-1.35,1.35-2.07,1.97l-.23-.28c.09.19-.14.96-.3.4,0,.65-.94.86-1.23,1.27.36-1.01,1.24-2.03,2.15-2.75-.03-.02-.07-.04-.12-.05.15-.33.24-.66.67-.94.02.22.16.27.32.3-.22-.19.22-.78.42-.6.1-.2.15-.41.2-.61.04,0,.08.02.11.02.06-.12.13-.23.2-.34-.04-.21.07-.36.23-.59.02.08.03.15.03.23.27-.35.56-.71.77-1.21.06.19.15.27.33.17-.16-.54.18-.91.6-1.09.23-.14-.06-.3.05-.44-.31.21-1.16.48-1.41.18-.08.18-.21.31-.36.44.29.13.23-.26.5,0-.11.44-.24.43-.28.85-.23-.14,0-.24-.14-.38-.16-.06-.3,0-.42.11-.09.2.21.05.2.31-.29-.03-.31.21-.22.42-.23.27-.09-.04-.32-.18-.19.17.03.39.24.62-.1.18-.24,0-.39-.12-.19.64-.62,1.2-1.12,1.7,0,0,0,0,0,0,0,0,0,0,0,0-.25.26-.52.51-.79.75-.11.75-.79,1.91-1.48,2.42-.08.08.07.22.14.35-.29.03-.39-.02-.51-.36-.34.24-.25.41-.61.3-.06.11-.07.24.06.41-1.82.99-3.04,2.13-4.17,3.03.09-.47-.39-.03-.51-.55-.04.09-.08.18-.2.24.14.19.37-.09.48.29-.52.03-.65.23-1.1-.25-.02-.35.58.15.39-.29-.89.3-1.5,1.6-2.82,1.59-.26.22.09.25,0,.52-.93.58-1.39.38-1.78.81-.17-.26-.41-.34-.76-.12-.03-.14.13-.15.24-.21-.04-.33-.26-.16-.39-.25-.07.14.16.3-.29.35-.02-.19.25-.19.04-.51.33-.33.77-.05.56-.7.74.76.68-.86,1.53-.71-.41-.8-.69.66-1.08.04-.28.18-.25.57-.62.47-.06-.21.27-.17.27-.35-.23-.23-.62.16-.79.27.04.11.14.05.21.06-.09.14-.7.45-.56.06-.14.15-.31.26-.34.48-.24.1-.36-.08-.28-.29-.2.1-.12.37.1.35-.18.35-.43-.07-.87,0,.73.46-.56-.12-.71.19.07.08.14.17.18.33-.19,0-.19-.43-.45-.26-.21.62-1.41.28-2.06,1.07l-.06-.35c-.29-.03-.31.19-.53.22.08.16.19.26.34.3-.03.15-.36-.01-.54.22,0-.23.23-.26.09-.63-.34.17-.55.24-.84.01-.23.06.15.19.07.48-.39-.24-.85-.54-.81.35-.52-.22-.73,1.18-1.82,1.04.27-.31.07-.12-.12-.35-.14.15-.21.36-.35.51-.32-.17-.27-.23-.68-.09-.02-.33.15-.25-.02-.48-.24.4-.39.29-.75.63.05-.31-.07-.64-.49-.23-.07-.35-.59-.14-.58-.59-.25-.03-.08.47-.39.36-.03-.46-.1-.43.1-.72-.23.02-.46.02-.56-.12-.06.38.28.27.17.72-.54,0-1.78-.25-1.68-.79-.13.03-.1.3-.13.47-.35.02-.26-.45-.33-.74.37.14.31-.34.67-.2-.52-.64-.86-.11-1.46-.35.02.4.18.67.6.65-.16.17-.43.16-.68.18.03-.21-.09-.26-.05-.49-.37-.17-.39.22-.68.17.01-.22.14-.24.15-.47-1.29,1.37-2.01-.47-3.39.32.39-.21.29-.5.72-.72,0-.15-.16-.15-.18-.03.28-1.04-.86-.71-1.47-.67.21-.36.62-.29.94-.41-.1-.28-.6-.52-.68.1-.24-.25-.38-.13-.71-.17-.2-.25.5.06.53-.24-.11-.53-1.08-.52-1.17-.55-.23-.05-.45-.09-.35-.1-.53.06-.59-.52-.85-.62-.1-.04-.33.32-.54.21-.58-.3-1.76-.97-2.95-.72-.04-.12.08-.32-.03-.4.28-.31.11.31.37.28.17-.6-.47-.77-.81-.86,0,.13.14.2.02.4-.35-.29-.66-1.29-1.26-.73-.2-.04-.08-.23,0-.4-.37-.13-.38-.17-.62-.18-.12.16-.04.23.05.3-.59.31-.49-.48-1.16-.34.28-.38-.18-.44-.1-.74-1.22-.16-3.12-1.22-4.04-2.35-.98.17-1.01-.89-1.85-1-.04-.23-.23-.44.05-.74-.28.04-.38.03-.48-.26-.19-.13-.05.24-.32.36-.38-.65-1.27-.11-1.78-.51.61-.48.67.14,1.18-.04-.11-.36-.27-.88-.68-.98.1-.03.21-.07.32-.19-.58.1-.76-.31-.97-.8-.13-.06-.09.13-.26.25-.66-1.21-1.95-1.86-2.53-3.35-.1-.08-.29.12-.44.21-.3-.46-.36-.51-.5-.89-.14.65-.29-.44-.17-.66-.11-.13-.37.18-.5.11-.13-.33.53-.24.45-.63-.56.09-.53-.35-1.01-.66-.02-.27.33.23.45.26.5-.25-.02-.58-.13-.88-.08-.18-.39.18-.56.23-.13-.34.4-.59,0-.96-.23-.16-.21.27-.46.16.34-.54-.32-1.13-.27-1.73.13-.05.17.1.23.19.28-.23-.2-.23-.21-.4-.08.08-.15.17-.13.27-.11-.17-.25-.56-.24-1,.13-.31.44.03.62-.26-.01,0-.03-.01-.04-.02-.12.04-.3.09-.39.02,0,0,0,0,0,0-.17-.1-.25-.24-.3-.39l-.14.06c.06-.04.09-.09.11-.15-.07-.23-.12-.49-.34-.71.07.01.16,0,.25-.02,0-.15.08-.28.35-.36.13.15-.09.22-.26.3,0,0,0,.01,0,.02.04-.02.08-.03.13-.05-.13.67.37.76.79,1,.07-.03.15-.06.24-.13-.06-.08-.04-.15.03-.21-.18-.34-.47.33-.55-.04.2-.05.31-.11.38-.18-.05,0-.11,0-.16.02.33-.43.06-1.56-.55-1.58.54-.42.13-.74,0-1.11-.03,0-.04-.01-.08,0,.03-.04.03-.08.05-.12,0-.05,0-.1,0-.15-.13-.16-.14.16-.37.04.08-.36.08-.61-.35-.62.35-.25-.2-.5.32-.73,0-.02-.01-.03-.02-.05-.19-.04-.25-.15.12-.26-.44-.06-.08-.55-.52-.48.65-.54-.39-1.2-.18-1.57-.22-.14-.64-.06-.71-.38.43-.74.03-.83-.44-1.62.12-.3.12.35.4.2-.52-1.63-.44-3.45-1.33-5.12-.04,0-.08,0-.11-.02.02-.02.05-.03.08-.05-.16-.29-.34-.57-.56-.84-.49.06-.07.38-.47.37-.21-.4-.11-.48-.37-.82.27-.05.17.18.36.18.16-.06.22-.19.24-.36-.07-.21-.19.11-.36-.1.23-.17.09-.37-.11-.46-.01-.35.1-.03.36-.08.02-.25-.29-.27-.59-.29-.05-.2.18-.17.37-.17-.55-1.17-.24-2.68-.15-3.92.02-.24.15-.45.17-.35-.17-.64-.01-1.71.76-1.66-.68-.32.3-.55,0-1.14.76.31.87-.76.54-1.21-.45.11-.59.66-.52,1.12-.66-.76.62-1.76-.25-2.42.15-.95,1.02-1.25.86-2.23.26.18.47.32.71.16.13-.44-.3-.21-.58-.52.57-.8.05-2.27,1.08-3.18.04-.34-.24-.13-.35-.38.3-1.06.77-1.21.78-1.79.31.08.53-.02.64-.42.11.08,0,.2-.04.31.25.22.3-.06.45-.07-.04-.15-.32-.12-.02-.45.14.13-.06.31.32.41-.03.47-.53.55.05.89-1.06-.06.06,1.09-.66,1.55.84.32.07-.96.78-.75.09-.32-.19-.59.14-.77.19.12-.09.31.03.44.33.01.35-.54.4-.73-.1-.06-.14.05-.2.1-.02-.16.22-.81.38-.42,0-.2.06-.4-.07-.59.11-.23.32-.18.4.03.08-.2-.17-.36-.31-.19-.1-.38.37-.24.64-.59-.85.14.5-.29.4-.62-.11-.01-.22-.03-.35-.12.14-.12.43.2.51-.11-.25-.6.86-1.15.81-2.18l.29.22c.24-.17.11-.35.24-.52-.17-.07-.32-.07-.45,0-.08-.13.28-.23.25-.52.15.17,0,.35.35.52.14-.36.25-.55.62-.57.13-.2-.24-.03-.37-.31.46-.08.99-.17.37-.8.54-.19-.25-1.37.66-1.99,0,.41.03.13.33.18,0-.2-.09-.41-.08-.61.35-.08.36-.01.56-.39.24.23.06.28.34.34-.08-.46.1-.47.14-.97.17.27.48.43.52-.16.29.21.53-.29.83.05.21-.14-.25-.4.04-.53.34.32.36.25.4.6.16-.17.33-.32.5-.29-.21-.32-.39-.01-.61-.42.4-.36,1.49-1.01,1.77-.54.08-.11-.12-.29-.22-.44.25-.25.49.17.74.33-.37.14,0,.46-.36.6.81.12.71-.49,1.32-.72-.29-.29-.58-.38-.88-.08,0-.23.21-.41.38-.59.12.18.24.14.36.33.39-.12.14-.42.39-.59.13.17.05.27.2.45.04-1.88,1.81-1,2.3-2.51-.14.42.12.56-.05,1.02.1.12.22,0,.16-.1.49.96,1.12-.05,1.54-.49.08.41-.27.63-.43.93.26.14.79-.02.44-.53.34.02.37-.16.65-.35.32.05-.41.29-.23.53.44.32,1.15-.33,1.24-.38.21-.12.39-.24.32-.16.35-.4.78-.01,1.04-.11.1-.04.03-.46.26-.52.63-.17,1.96-.46,2.67-1.45.1.06.16.29.29.28,0,.42-.29-.16-.47.04.28.56.86.26,1.18.1-.09-.1-.24-.05-.28-.29.46-.02,1.36.52,1.42-.31.17-.11.21.12.27.3.37-.15.39-.13.58-.28-.02-.21-.12-.2-.24-.19.23-.62.69.02,1.09-.53.05.47.43.21.57.48,1.01-.69,3.13-1.19,4.57-.96.61-.78,1.35-.02,2.05-.49.19.14.46.17.46.58.18-.22.26-.28.53-.13.23-.03-.12-.21,0-.48.72.22,1.02-.76,1.67-.81-.13.77-.59.35-.85.82.33.19.79.47,1.17.27-.05.09-.1.19-.11.36.36-.47.77-.28,1.26-.06.14-.04-.02-.15.03-.36,1.29.46,2.69.08,4.12.79.13-.01.13-.28.18-.45.53.14.61.14.97.33-.33-.57.51.14.57.38.17.02.15-.38.3-.42.32.15-.23.53.09.76.35-.44.63-.1,1.19-.18.2.19-.39.05-.51.11-.21.52.4.41.69.57.18.08.16-.39.26-.55.32.16.09.71.64.71.28-.03-.03-.35.24-.43.11.63,1,.62,1.36,1.11-.06.13-.19.04-.3.02-.01.08,0,.12.02.14.02.01.05.02.07.03.1,0,.26-.09.34-.02,0-.11,0-.23-.08-.29.19.05.56.25.84.58.05.13-.01.2-.09.26.02.03.03.05.05.08.07-.05.16-.05.24.06.01-.02.02-.03.03-.06.04.03.03.08.02.14,0,0,.01.01.02.02,0,0-.02.01-.03.02-.03.09-.09.2-.12.29-.05-.06-.1-.1-.13-.14-.12.07-.23.18-.3.49.1.02.13.09.11.18.04.01.07.01.09.01.03-.02.06-.03.09-.05.09-.14.03-.46.25-.3-.44.64.17.66.35.94-.01.02-.03.02-.04.03.18.05.37.11.47.28.21.02-.01-.21.24-.29.2.31.38.49.69.19-.08.44.55.18.27.81,0,0,0,0,0,0,.1-.08.19-.12.23-.09,0-.01.02-.02.03-.03.02.11.05.2.1.28.21,0,.32.33.52.04-.02.19.04.32.13.42.28.1.55.15.67.3.21.06.4.12.44.27.26-.06.49-.4.77-.24.22.83.57.61,1.46.83.13.3-.33-.16-.42.14,1.8.94,3.2,2.66,5.63,2.91.31-.39-.22-.31.08-.59.44.13.42.27.84.32-.15.22-.24,0-.38.12-.07.16-.02.3.08.43.19.1.06-.21.32-.19-.05.28.2.32.41.25.26.24-.05.09-.2.31.16.2.4,0,.63-.21.18.11,0,.24-.14.38,1.21.44,2.07,1.72,2.88,2.66.16.18.21.42.13.37.57.34,1.22,1.2.63,1.71.71-.26.18.61.81.81-.76.31-.08,1.15.47,1.24.25-.4-.05-.88-.42-1.16,1.01.07.81,1.68,1.89,1.53.56.78.16,1.6.97,2.19-.31.06-.56.11-.61.39.22.4.36-.07.78-.04.16.96,1.57,1.64,1.48,3.01.21.27.26-.08.52.03.53.96.31,1.4.72,1.81-.27.16-.36.39-.16.75-.14.02-.15-.14-.19-.25-.33.02-.17.25-.27.37.13.08.31-.14.33.31-.19,0-.18-.26-.51-.06-.31-.35-.01-.77-.67-.6.79-.7-.82-.73-.63-1.57-.82.37.63.73-.02,1.08.17.29.56.28.44.64-.22.05-.16-.28-.33-.29-.24.22.13.63.23.8.11-.03.06-.13.07-.21.13.1.41.73.03.57.14.14.24.32.47.36.08.25-.1.35-.3.27.09.2.37.14.35-.08.34.19-.09.43-.04.87.5-.7-.14.56.16.72.08-.07.17-.13.34-.16-.01.19-.44.16-.28.43.6.24.2,1.42.96,2.11l-.36.05c-.05.29.17.32.2.54.16-.07.27-.18.32-.32.15.04-.03.36.19.55-.23-.02-.25-.24-.62-.12.16.35.21.56-.03.84.05.24.19-.15.48-.04-.18.26-.37.54-.21.7-.02-.05-.03-.11-.05-.16.18.03.31.11.49.15.06-.29-.15-.33-.17-.55.04-.02.06-.05.1-.08,0-.15.08-.34.04-.55.04.05.08.08.11.1-.04-.4-.28-.9-.07-1.11-.1.28.08.44.43.53-.02.2-.04.35-.05.49.11-.13.19-.35.26-.47.28-.17-.23.67.09.86-.15-.1-.26-.06-.33.02.03.15.07.31.19.52.15-.11.44-.13.45-.33.14.08.06.18.16.47-.47.12-.76.36-1.01.62.23.26.67.54.81,1.01.1,0,.2.02.3.02-.12.38.44.34.14.58.26.01.38-.09.35-.3.35,0-.09.68.25.69-.13.29-.39-.12-.36-.29-.16.1-.45.1-.48.3.04.13.3.08.48.1-.1.38-.43.73.24.79-.53.51-.19,1.09-.4,1.56.17.12.29.12.36-.08.37.27-.04.62.08.7ZM76.63,31.76c.05.23.11.45.36.39.01-.13.09-.23.29-.28-.07-.25-.2-.51-.08-.68-.41.02-.09.34-.09.53-.28-.09-.21.13-.49.04ZM76.84,30.8c0-.32.2-.5-.22-.64,0,.32-.2.5.22.64ZM4.14,29.72c-.63-.29-.88.01-1.12.32.52.1.72-.26,1.12-.32ZM4.3,28.89c-.45-.28-.74.55-.21.61.32-.1,0-.33.21-.61ZM65.13,71.5s.04-.03.05-.04c-.02,0-.04,0-.06-.02,0,.03,0,.04,0,.06ZM73.38,58.6c.11-.11.38.09.37-.24l-.33-.15c-.04.13-.18.29-.05.39ZM74.16,29.74c.09.31-.13.87.32.85-.5.09-.11.47-.28.67.33-.18.39.04.71-.14.03-.49-.61-.79-.75-1.38ZM72.46,58.62c-.55-.13-.74.45-.84.78.09,0,.15-.05.24-.05.1-.11.21-.24.33-.39-.11-.13,0-.14.13-.17.04-.06.09-.11.13-.17ZM70.94,61.25c.12.04.21.01.35.11.09-.55.12-.61.47-1.1-.31-.28-.3.16-.42.29-.32-.13.07-.37-.16-.51-.12.16-.15.34.06.59-.02.07-.05.09-.1.09.03.19-.11.38-.3.48.02.01.03.02.05.02.01-.01.02-.03.04-.04.01.03.01.05.02.07ZM70.55,62.03s-.03.1-.03.15c.05,0,.09,0,.15-.02-.05-.03-.09-.08-.12-.13ZM69.71,62.66c-.06.24-.15.49-.27.75,0,0,0,0,0,0,.17-.26.4-.52.26-.76ZM26.41,70.06c.19,0,.45.35.61.12-.27-.15-.24-.6-.61-.12ZM26.05,68.57c-.13-.16-.22-.3-.45-.09.27-.06.21.57.45.09ZM22.91,67.26c-.06.1-.13.09-.19.16.46.11.67-.34.59-.77-.44-.09-1.64-1.28-2.14-.12.78.3.96.21,1.75.73ZM20.74,69c.2-.2.4-.12.6-.32-.19-.43-.84.01-.92-.47-.25.4.43.44.32.79ZM8.85,56.06s-.03,0-.04.02c.02,0,.03-.02.04-.02ZM6.17,48.09s-.1-.03-.17,0c-.16.12.05.26.05.44.07-.16.1-.3.11-.43ZM8.56,57.84s0,.02,0,.03c.02,0,.03,0,.05,0-.02-.01-.04-.02-.05-.03ZM14.68,57.78c-.6.28.35.39-.09.93.28-.06.4.24.75.02.14.29-.29.03-.45.4.21.21.91.09.91.42,0,0-.01.02-.02.02.16.11.32.22.4.22-.13.17-.38.09-.57-.05-.04.04-.07.07-.06.08.14.13.47,0,.6.18-.01-.02-.23.1-.24.09.09.06.39.1.46.19.13.15-.12.63.05.8.15.15.65-.07.84.05.33.2.03.92.59.82.15.15-.06.39.04.55.73.27,1.18.73,1.97,1.03.08-.05.2-.12.34-.2-.13-.06-.36-.02-.53-.01.11-.04.24-.15.38-.31.09.13.2.18.32.22.25-.16.45-.34.28-.46.27.28,1.04.55,1.11-.1-.06-.07-.12-.13-.19-.2-.05,0-.1.03-.09.05-.05-.1-.1-.2-.17-.3-.13-.13-.26-.26-.39-.39-.2-.13-.45-.22-.79-.19-.5-.75-1.18-1.32-1.72-1.98-.36-.22-.72-.46-1.24-.56-.28.22.45.29-.02.54-.56-.59-.53-1.12-1.4-1.22.23-.2.15-.37.19-.56-.14-.07-.51.32-.56.04.24-.22.28-.02.48-.15-.29-.15-.43-.3-.6-.69-.08.3-.26.23-.53.5.06.3.45-.07.48.28-.22.06-.37-.02-.53-.09ZM13.91,55.82c.1-.02.16-.08.22-.15-.07-.11-.14-.2-.26-.21-.12.11-.02.24.05.36ZM9.47,50.16c-.56-.15-.43-1.04-1.14-1.05.03.09.07.18.09.26.06-.02.12-.04.2-.03,0,.06-.09.09-.19.12,0,.05-.01.09-.07.12.04.05.06.11.07.18,0,0,.02,0,.03.02.29-.04-.15-.33.29-.31.26.08.16.34-.27.39.17.35.69.29.81.68.04-.15.11-.29.18-.38ZM8.31,48.01c.05-.08.1-.15.18-.21-.08-.05-.16-.1-.24-.13-.14.14-.08.27.06.35ZM30.46,12.86c-.15.12-.57.04-.53.31.31-.07.58.29.53-.31ZM31.72,13.73c.2.04.37.08.39-.24-.16.23-.54-.28-.39.24ZM34.93,12.6c-.02-.12.04-.15.04-.25-.41.23-.27.7.08.96.35-.2,1.72-.17,1.72-1.01-.13-.06-.27-.13-.39-.19-.48.22-.68.37-1.44.49ZM58.8,14.59c-.13-.12-.26-.24-.39-.35-.02.21.21.42.39.35ZM52.58,11.13c-.13-.1-.25-.02-.36.08.1-.01.2-.03.35-.07,0,0,0,0,.01-.02ZM51.73,10.86c-.21.01-.41.05-.44-.07-.01.03-.01.05-.02.08.14.03.29.02.46,0ZM50.17,9.4s.06-.02.09-.03c-.02,0-.03-.01-.05-.02-.01.02-.03.03-.04.05ZM45.37,13.55s.03-.36,0-.37c-.19,0-.35.31-.57.28.02,0,.1-.22.11-.23-.11.01-.35.19-.47.17-.08,0-.15-.11-.22-.21-.23.05-.68.09-.77.19-.03-.28.36-.39.64-.38-.07-.09-.13-.16-.22-.16-.22,0-.44.49-.65.53-.38.07-.64-.66-.98-.21-.21-.01-.22-.32-.4-.38-.72.29-1.37.24-2.16.56-.08.29-.42,1.13-.07,1.08-.41-.03-1.21.31-.72.87.02.02.04.02.05.02.03,0,.06,0,.09,0,.09-.03.16-.14.12-.16.46.2,1.07.34,1.59-.25.37.09.74.14,1.1.17.45-.11.91-.19,1.39-.51.04-.36-.53.11-.37-.4.81.03,1.16.42,1.85-.13-.02.3.16.37.26.53.15-.05.13-.59.37-.42-.01.33-.18.21-.23.44.31-.1.51-.09.91.06-.15-.27.03-.35.02-.73-.25-.17-.26.37-.54.14.21-.38.61-.23.84-.6.01-.06.02-.12,0-.2-.3-.01-.74.54-.96.29ZM49.25,13.78c-.14.02-.35-.24-.45-.04.15.04.28.08.39.11.02-.03.04-.04.05-.08ZM46.86,13.52c-.04.06-.09.06-.15.06-.04.13-.03.21.01.25-.22.23-.2-.11-.07-.32-.15.06-.31.08-.39.36-.03-.01-.04-.02-.05-.03-.03.01-.05.01-.08-.01-.18.71.3,1.01.65.64.02-.14-.1-.13-.18-.16.18-.12.29-.47.5-.5-.12.38-.05.63.03.99.11-.09.25-.06.4-.02.14-.1.27-.15.4-.15-.17-.04-.35-.07-.19-.42.19.5.44.19.76-.03-.19.4.31.65.77.53.06-.08.13-.11.21-.09.05-.03.1-.07.15-.11.04-.1.04-.17,0-.21.18-.13.24.12.53.05-.04.17-.11.23-.18.26.04.15.08.25.24,0-.04.42.29.55.57.73.1-.18.03-.23-.04-.28.29-.32.36,1.07.94.39-.07.12-.07.2-.03.25.14-.07.05-.19.28-.27.15.18,0,.2-.13.47.3-.25.63-.36.96-.49-.07.17-.15.46.12.58-.07-.39.19-.46.34-.35.11-.2.26.03.37-.22.2-.27-.02-.28.08-.49h0s-.02.06-.05.09c-.03-.05-.05-.07-.08-.1-.22-.03-.56-.09-.49.25-.26.1-.08-.21-.07-.46-.02,0-.02,0-.04,0l.04-.09c-.25.21-.35.31-.39-.05-.04.02-.09.06-.13.09-.08.2.34.07.07.39-.05-.1-.11-.21-.16-.31-.06.06-.12.12-.18.18,0,0-.01,0-.02-.01.07.15.11.31.14.44-.28.08-.41-.34-.61-.72-.4-.19-.89-.33-1.45-.47.05-.09.11-.09.16-.2-.25.08-.41.08-.65.02-.24.21-.16.28-.33.51l-.21-.07c.06-.13.16-.05.25-.04.03-.17-.06-.28-.2-.32-.02.07-.02.13.02.15-.11-.05-.26-.08-.42-.1-.06.04-.11.09-.14.16,0-.07-.02-.12-.04-.17-.43-.03-.94,0-1.28.06.24-.56-.38-.16-.53-.6ZM49.71,13.93c-.11-.03-.23-.07-.39-.12-.01.03-.02.05-.03.08.12.03.25.05.41.04ZM50.35,11.74c-.18.02-.45-.3-.57-.06.32,0,.32.69.57.06ZM52.11,13.85s.08,0,.11,0c-.06.09-.11.14-.17.17,0,.01,0,.02,0,.03.08-.17.32.39.5-.18-.11-.1-.33-.1-.44-.02ZM52.64,13.94s0-.03.01-.05c0,0-.02,0-.03,0,0,.01.01.03.02.05ZM52.79,14.1s0,0,0,0c0,0,0,0,0,0-.01.03-.02.06-.03.09.07.11.17.21.27.28l.06-.12c-.17-.04-.25-.13-.29-.26ZM52.71,13.87s.05.05.08.06c.02-.06.05-.12.07-.18-.06,0-.1.07-.15.12ZM60.55,18.08c.38.08.31.56.76.33-.29.1-.31-.73-.76-.33ZM64.56,22.44c-.83-.54-1.25-1.21-1.82-1.5.22.98.91,1.21,1.45,1.99.31-.39.6-.28.84-.67-.2-.17-.32-.64-.64-.4-.16.35.53.21.17.58ZM68.05,25.01c.23-.17-.17-.26-.28-.21.21.17-.05.31.16.48.26-.15.41-.06.37-.32-.09.03-.2.12-.25.06ZM73.7,51.83c-.08-.25.21-.65-.19-.77.16.33-.32.51.19.77ZM73.74,47.83c-.19.8-.2,1.53-.26,2.23.05.1.11.18.21.24-.08-.54.24-1.69.05-2.47ZM66.26,63.14s0,0,0-.01c-.04.03-.08.06-.12.09-.18-.26.15-.47.44-.71.08-.17.15-.33.23-.49-.21.13-.27-.33-.63-.51-.04,0-.07.01-.11.03.02.13.05.14.23.32-.13-.05-.34.24-.09.13.02.1-.08.15-.21.19,0,0,0,0,0,0-.22.17-.28.5-.39.94-.23-.19-.2-.36-.43-.23.21.31-.33.09-.39.31.13.17.54.13.47.38-.33-.09-.61,0-.87.12-.24,1.36-1.44,2.21-1.85,2.92.08-.05.19.07.31.2-.13.18-.46.31-.37.54.01-.04.03-.08.03-.13.05.08.06.15.05.22.06-.01.13-.03.19-.04.06-.09.05-.13.22-.08.03-.02.07-.02.1-.04-.01-.07-.02-.13-.04-.2,0-.02,0-.03,0-.05-.03-.12-.07-.24-.12-.36.18.07.35.1.51.1.18-.11.35-.23.52-.35-.06-.08-.16-.15-.23-.23.08-.16.23,0,.37.12,0,0,.01-.01.02-.02.35-1.21,1.5-1.98,2.17-3.15ZM61.82,68.33c.07-.1.14-.2.22-.31-.11.06-.22.14-.43.2,0-.08.03-.14.06-.2-.12,0-.23.03-.32.21-.38-.3-.33-.57-.64-.24.08-.19-.09-.45.13-.6-.11-.13-.25-.15-.39-.12-.07.07-.14.11-.2.08-.06.03-.11.06-.16.1.11.11.36.22.24.28-.14.14-.59.56-.85.83.02.02.03.04.07.07-.05.07-.09.12-.15.16l.23.3c-.24.22-.09-.16-.35-.18.11.48-.73.08-.44.79-.18.05-.25-.05-.28-.24-.06.15-.25.63.08.68.19.22-.35.17,0,.44-.17.01-.13-.17-.2-.29-.35.59-1.17.76-1.54,1.33-.01-.2-.08-.3-.26-.26.07.11.04.26.02.39.39-.1.77-.24,1.04-.56.08.16.17.11.26.1.11-.18.26-.36.48-.55.01.02.01.04.01.06.14-.13.3-.22.46-.3.02-.09.03-.17,0-.25.06.04.12.1.19.15.31-.15.6-.31.77-.64.12-.04.23-.08.33-.12.02-.1.02-.21-.02-.36.15-.06.32.07.47-.08.13-.17-.28-.21-.34-.03.06-.79,1.39-.2,1.37-.85.07-.03.11-.02.13.02ZM24.47,64.41c-.05-.06-.13-.09-.22-.05,0,.01-.02.02-.03.04.12.03.09.46.34.21-.06-.01-.08-.1-.08-.2ZM57.12,16.29c0,.24.33.13.52.06,0-.15-.07-.21-.18-.22.02.04.01.09-.11.19-.11.05-.18.02-.21-.05,0,0-.02.01-.03.02ZM56.66,16.43c.06.05.12.13.19.21.01-.02.03-.03.04-.05.04.04.04.09.04.14.09.1.2.19.32.23.09-.08.15-.16.25-.14-.22-.27-.56-.26-.84-.4ZM61.37,19.6c.04-.22-.3-.19-.53,0,.14.2.33.1.53,0ZM68.87,55.7s-.07.03-.11.03c-.15-.21.03-.27-.28-.33-.22.01-.42.06-.46.37.29.11.46.24.34.42-.1-.12-.25-.23-.51-.33.07.35.04.66-.28.9.15.12.21.11.25.04,0-.04,0-.09-.03-.14.03,0,.04.03.06.04.03-.11.06-.22.2-.15-.02.12-.04.2-.07.27.1.21-.03.54-.24.75.02.01.04.03.04.08-.05,0-.09,0-.13,0-.06.04-.12.07-.19.09-.08.11-.09.26-.37.18,0,0,0,0,0,.01.08.08.18.16.34.24-.47.13-.3.5-.15.88.28-.43.57-.84.96-1.23-.26-.65.76-1.44.62-2.13ZM67.68,57.15c-.1.06-.21.14-.33.29.01.05.03.08.06.1.04-.14.17-.27.27-.4ZM67.02,58.68c-.55-.21.14.63-.36.61.02.22.21.14.36.16.03-.04.05-.08.08-.11-.09-.18.09-.51-.07-.66ZM66.7,56.07c-.06.1-.16.15-.24.2.11,0,.21-.02.3-.04.01-.06,0-.11-.06-.16ZM65.57,62.35s0,0,0,.02c.02-.01.03-.03.05-.05-.02.01-.04.02-.05.04ZM66.3,60.9c-.09-.05-.16-.1-.23-.14-.1.14-.19.28-.24.44.16-.07.32-.15.47-.29ZM67.17,60.89c-.46-.2-.53-.27-.61-.6.29.2.66-.14.35-.35-.03,0-.04,0-.06.01-.2.19-.42.39-.61.6.1.24.41.37.93.33ZM67.2,59.94c.18.14.27.06.45.18-.02-.18.17-.38.04-.55-.06.34-.43.03-.49.37ZM64.66,62.13c-.01.2-.02.4-.28.43.04.03.08.04.12.05.17-.12.37-.24.16-.48ZM62.14,67.68c-.09-.05-.19-.13-.28-.24.21.5-.29.14-.52.16,0,.09-.01.18-.1.26.2.09.38-.04.59.02.1-.07.21-.13.32-.18ZM58.29,69.66c0,.12-.02.23-.05.33.08-.05.1-.27.07-.34,0,0,0,0-.01.01ZM58.09,69.97s-.03-.05-.03-.05c-.03.04-.06.12-.08.21.03.06.08.08.2.05-.03-.07-.1-.16-.08-.21ZM63.91,62.11s-.08.03-.12.04c0,.09-.09.18.08.29.01,0,.03,0,.06,0,.05-.05.09-.1.12-.15-.05-.03-.09-.12-.13-.19ZM60.28,66.34s.01-.1-.02-.2c-.03.02-.07.02-.1.02.05.06.09.12.12.18ZM60.61,66.74s.04.04.07.06c.02-.02.04-.05.07-.07-.04.01-.09.01-.14.01ZM61.39,66.82s.06.08.12.12c0-.14.04-.26.09-.37-.07.07-.15.15-.21.25ZM61.78,67.35c.08.02.47-.06.3-.28-.18-.02-.53-.07-.3.28ZM62.91,63.65c.17-.19.33-.37.35-.57-.06.12-.12.15-.17.13-.08.09-.17.17-.29.21-.03.05-.09.11-.14.16.07.07.16.09.27.08ZM61.71,64.73c-.25.2-.47.41-.55.7.21-.25.4-.47.55-.7ZM57.56,70.02c-.12.05-.17.13-.18.22.09.03.17.01.24-.03-.04-.03-.05-.11-.06-.19ZM57.42,70.56s.1-.08.17-.11c-.06-.04-.13-.1-.21-.2-.01.09.01.2.04.31ZM60.88,66.93c0,.09-.03.17.14.3.09-.06.15-.13.18-.2-.12-.09-.23-.12-.32-.1ZM62.43,65.67c-.08.01-.15.01-.21-.03-.01.11-.03.21-.06.29.09-.08.18-.17.26-.26ZM62.77,65.1c-.12.07-.23.13-.36.18-.11.12.16.18.25.09.05-.08.08-.17.11-.26ZM37.43,15.29c.33.01.68,0,1.03,0-.35-.15-.69-.11-1.03,0ZM34.36,13.2c.13-.08.3-.1.22-.41-.16-.19-.28.09-.22.41ZM70.86,60.62s-.02,0-.03-.01c-.15.36-.19.37-.21.61.05.04.09.06.13.06-.05-.24-.03-.45.11-.66ZM70.9,27.66c.27.27.12.47.41.57.09-.18-.07-.72-.41-.57ZM70.53,27.18c-.36-.1-.08-.54-.49-.42.17.13.11.68.49.42ZM68.63,25.72c-.12-.07-.1-.44-.32-.29.03.1-.09.11-.21.12.09.25.3.21.53.17ZM66.2,23.99c-.17-.11-.35-.21-.63-.04l.19.25c.17-.12.32-.2.44-.21ZM66.02,23.53c-.18-.09-.2-.63-.53-.3.3.21.18.41.53.3ZM62.37,20.23c-.33-.25-.59-.68-.92-.72.31.18-.02.32-.19.31.05.1-.01.22.14.29.51-.52.42.43.97.11ZM61.2,18.64c.24.21.77.27.76.68.35-.64-.53-.7-.76-.68ZM60.47,18.65c.05.19.14.36.11.57.2-.4.24.12.41-.12.02-.17-.3-.58-.52-.45ZM58.72,17.26s-.03-.05-.04-.07c0,.03.01.06.01.09,0,0,.02,0,.03-.02ZM57.68,15.5c-.13-.02-.27-.05-.37,0,.12.02.25.02.37,0ZM56.72,15.9s-.05-.01-.07-.02c.02.01.04.02.06.04,0,0,0,0,0-.01ZM56.59,15.54c-.15.2-.31.09-.46.29.02,0,.04.03.06.04.13-.1.26-.1.4-.03-.04-.08.05-.23,0-.3ZM56.35,15.95c.12.08.24.11.36-.03-.12.04-.24.06-.36.03ZM40.06,9.62c.47.07.59-.02,1.03.14.04-.23.24-.21.19-.6-.55.59-1.57-.07-2.33.48.13.37,1.54.55,1.11-.02ZM41.64,9.77c0-.06.02-.1.05-.13,0,0-.01,0-.02,0,.02-.08.08-.14.15-.18.01-.04.02-.09.01-.16-.27-.06-.46.02-.43.46.35.04.55.29.58.75-.19-.07-.26-.17-.39.1.16.04.19.25.28.37.42-.24.66-.52,1.18-.28-.14-.88-.81-.56-1.42-.93ZM43.96,9.84c.09.03.06.2.03.37.14.02.25,0,.33-.08.15-.34-.27-.55-.37-.29ZM45.59,9.42c-.55-.25-1.19-.25-1.82-.23-.48.01-.95.04-1.41,0-.07.08-.15.15-.29.12,0,.06,0,.12.02.17.02.02.03.05.04.09.32.44,1.61.17.88.05.1-.12.26-.1.42-.06.1-.03.27-.04.42-.04.01-.04.02-.09,0-.17.6-.13.64.51,1.08.5.25,0,.44-.26.65-.43ZM39.68,7.9s0,0,0,.02c.01,0,.02,0,.03-.01-.01,0-.02,0-.03,0ZM38.51,8.33c.05.07.4.26.41-.02-.13-.13-.36-.4-.41.02ZM38.27,10.4c.14.02.38-.15.32.22.82-.28,1.68.41,2.25-.51-.92.23-2.06-.06-2.57.29ZM36.49,10.55c.67.43,1.16-.13,1.57.34.3-.6-1.03-.7-1.57-.34ZM36.43,10.68c-.05-.06-.28-.46-.32-.08.27,0-.14.47.13.47-.02-.23.24-.11.19-.39ZM36.15,10.23c-.09-.46-.62-.03-.77-.37-.02.29-.22.36-.23.64.43.2.61-.57,1-.27ZM34.82,10.43c-.51-.16-.75-.39-1.2-.39.12.37.05.56.08.84.44-.29.94.11,1.12-.45ZM8.76,48.65s0,0-.01,0c0,0-.02,0-.03,0-.04,0-.09,0-.14,0,.14.18-.15.21-.17.33.24-.03.28.15.53.12-.06-.15-.05-.37-.17-.45ZM8.69,47.68s.01,0,.02-.01c-.02,0-.02-.02-.04-.03,0,.02.01.03.02.05ZM8.17,49.61s0,0,0,0c0,0,0,0,0,0,0,0,0,0,0,0ZM9.63,49.58c-.09-.03-.21-.03-.35,0,0-.18.37-.24.26-.45-.14-.09-.3-.05-.41-.05.06.28.17.57.29.87.23-.07.2-.22.22-.36ZM20.91,67.52c-.14.18-.25-.08-.4.16,0,.08-.1.53.18.27-.21-.18.42-.26.22-.43ZM16.67,63.8c-.48-.11-.84-.05-1.07-.59-.49.74.23.96.43,1.64-.17.17-.26-.05-.46.22.16.23.35.29.63-.06-.23-.27-.22-.58.07-.94.09.18.08.3.36.19-.09-.14.03-.31.04-.47ZM16.07,66.88c-.1-.07-.19-.2-.29-.27,0,.18-.01.5.29.27ZM13.4,57.11c.03-.06.03-.13,0-.2-.11,0-.21-.04-.3-.07.08.12.09.38.29.27ZM14.27,62.8c-.34.15-.17.59.08.46-.05-.08.09-.19.22-.29-.08-.11-.18-.17-.3-.16ZM14.1,63.69c.18.24.34.49.43.8.25.08.58.14.75.34.04.02.09.04.13.09.57-.54-1.03-1.53-.5-.86-.22.03-.35-.23-.47-.39-.01-.01-.02-.03-.03-.04-.09-.1-.18-.12-.3.07ZM12.93,62.48s.04.04.06.06c.29.27.58.53.83.81-.07-.26.04-.55-.19-.75-.17-.15-.45-.11-.71-.11ZM12.74,62.26s-.04-.02-.06-.02c.01.01.03.02.04.04,0,0,.02-.01.02-.01ZM17.94,66.76c.15-.36-.78-1.45-.84-.73-.31-.37-.45-.38-.67-.79-.18.14-.32,0-.54.32.81-.07,1.12,1.1,2.05,1.2ZM18.95,66.65c-.09-.11-.38-.15-.09-.38-.79-.34-.98-1.43-2.01-1.13.83.45,1.49,1.43,2.1,1.51ZM20.37,67.73c-.21-.77-.95-.67-.93-1.31-.63.25.29,1.21.93,1.31ZM23.29,67.35c0,.25.27.12.44-.15-.15-.03-.29-.13-.44.15ZM42.55,77.09c0,.23.12.25.13.47.33-.18.67.24.68-.2-.23-.17-.53-.2-.81-.26ZM43.58,77.69c.14.15.64.14.59-.2-.1,0-.12-.17-.14-.34-.28.05-.44.22-.45.55ZM54.03,75.81c-.07.03-.12.18-.19.24.04-.02.1-.04.18-.06.03-.02.06-.04.1-.06-.03-.05-.06-.09-.09-.12ZM53.77,76.08s.02-.01.02-.01c0,0-.02,0-.03,0,0,0,0,0,0,0ZM56.56,75.69c.14.51.92.08.57-.31-.31-.14-.23.24-.57.31ZM57.24,75.18c.27.64.66.58,1.04.51-.32-.42-.71-.29-1.04-.51ZM72.11,59.31c-.07,0-.13.02-.18.05.03,0,.06.02.1.04-.18.19-.57.36-.79.58.26,0,.61.17.73-.12-.46-.34-.08-.03.14-.54ZM74.63,48.54l-.36-.06c-.03.23-.14.49.16.56.15-.08.18-.28.2-.5ZM73.85,29.27c-.6.29.37.63-.4.63.02.35.52.26.66.04-.16-.38-.22-.3-.26-.68ZM73.42,26.26c-.16.3.23.24.28.58.52-.12.13-.91-.28-.58ZM73.23,26.14c.65-.24.61-.63.56-1.02-.44.29-.32.69-.56,1.02ZM72.59,28.43c.07.21.21.31.4.31.12-.19-.08-.47-.4-.31ZM70.77,26.87c.42.34.47.5.97.59-.2-.26.02-.86-.5-.73.15.49-.24.16-.47.14ZM61.67,16.52c-.43-.28-.94-.52-1.37-.77.21.24.46.4.72.88-.5-.36-1.11-.97-1.75-1.59-.46-.18-1.12-.29-1.02-.72-.93-.74-1.86-1.15-2.73-1.57,0,0,0,0,0,0,0,0,0,0,0-.01-.27-.13-.54-.26-.8-.41.1-.13.22-.1.31-.25.03-.05.02-.08.01-.1-.02-.02-.04-.04-.06-.06-.09-.05-.23-.06-.28-.12-.26.3.2.2-.06.5-.45-.04-1.07-.4-1.65-.66,0,.1-.02.21-.08.29-.03-.11-.12-.19-.26-.24.01-.07.08-.11.15-.14-.05-.02-.11-.04-.16-.06-.1.13-.3-.22-.34.18-.17-.23-.25-.13-.57-.34.06-.02.1-.03.15-.05,0-.02-.02-.03-.03-.06.09-.19.23-.21.4-.11-.05-.22-.21-.26-.38-.27-.24.08-.57.21-.17.34-.52.01-.72-.17-1.25-.18.08-.13.18-.2.31-.15,0-.04,0-.08,0-.12-.51-.26-1.16-.51-1.4-.08-.15-.05,0-.34-.25-.32-.15-.03-.22.16-.28.39-.04-.5-1.34-.54-1.68-.61.25-.54.94.05,1.21-.46-.61-.06-1.27-.21-1.81-.07,0,.05,0,.1,0,.17-.03-.06-.08-.1-.13-.12-.1.04-.2.09-.28.15-.03-.03-.06-.05-.09-.08-.06.07-.11.16-.13.29.52-.41,1.56.64,2.49.42.09.04,0,.23-.02.37.14-.02.28-.01.42,0,0-.02.01-.05.02-.07,0,.02,0,.05,0,.07.87.13,1.62.96,2.35.85l-.13.34c.39-.32.53-.11.8.16-.4,0-.28.35-.73.12.34.28.82.28.96.76l.06-.13c.03.1,0,.16-.04.2,0,.02.01.04.02.06.07-.16.15-.31.07-.36.05-.03.12,0,.18.06.1-.02.23.15.33.14-.05.08-.08.13-.11.17.05.09.09.18.1.24,0,0,.01,0,.02,0,0,0-.01,0-.02,0,.14-.19.24-.15.33-.05.13-.03.22-.08.16-.24.17.09.37.18.56.27.32-.07.68-.03.68.28-.01,0-.02.01-.04.02.15.07.3.14.46.21-.23.41-.48.17-.53.67-.42-.28-.68-.72-1.16-.6-.03.04-.05.07-.08.13.4-.13.09.31.26.5,0,0,.02,0,.03,0,.08-.02.14-.18.23-.14.01,0,.02.01.03.02.03-.02.06-.04.08-.07.05.12.15.21.24.31-.02-.11-.04-.21-.09-.26.32-.22.29.15.24.43.03.04.05.08.07.13.06-.05.13-.1.2-.03-.15.18-.24.23-.29.2-.24.39-.42.63-.82.47.09.07.14.21.04.4.09,0,.48-.17.35-.36.09.04.14.84.66.35.12.73,1.06.76,1.49.28.14-.18.33.21.33.33.15.13.3-.36.45-.14-.24-.44-.76-.67-1.32-.92-.2.37.33.36.09.74-.27-.35-.5.35-.77-.02.08-.12.17-.02.25,0,.17-.68-.11-1.15-.55-1.52.44-.17.73.39.76.68.57-.32,1.2.66,1.77-.37.03.15.1.24.18.28,0,0,0,0,0-.01.03.02.06.02.09.04.27.05.66-.19,1-.22,0,.18-.05.26-.12.29.03,0,.07,0,.1,0-.14.12-.14.25-.08.41.14-.1-.05-.43.23-.46.57.46,1.04,1.47,1.89,1.5.08-.14-.1-.2-.18-.29.31-.03.24,0,.49-.23-.06.13.22.35.13.1.28-.04.13.8.53.75-.09.05-.19.09-.29.22l.24.2c.04-.1.09-.21.03-.28.04.05.08.1.13.14.02-.09.06-.19-.07-.24.26-.09.56.04.2.39.8.87,1.96,1.66,2.32,2.78.13.13.22-.24.07-.28.27-.13.42.33.29.49.83.12.61.7,1.39,1.03-.6.58.6.84.13,1.13.14.37.4-.36.48-.16.16.18.71.83.93,1.04l.39-.27c.21.25-.17.08-.2.34.49-.08.04.73.76.48.04.18-.06.25-.26.26.15.07.61.28.69-.04.23-.18.15.36.44.02,0,.17-.18.12-.3.19.57.38.7,1.2,1.25,1.61-.2,0-.3.06-.28.24.25-.14.66.21.75-.12.2.03.43.25.34.4.13.03.29-.08.68-.25-.28-.36-.69-.88-1.08-.51-.07-.15.32-.24.19-.4-.4-.23-.9-.28-1.42-.96.25-.11.23.4.53.18-.05-.17-.58-.78-1-.68.09-.12.24-.2.26-.47-.56-.12-.3-1.05-1.17-.84-.05-.16.08-.32-.06-.48-.17-.14-.23.27-.04.34-.79-.1-.13-1.4-.78-1.41-.1-.25.25-.1.38-.3-.43-.16-.43-.29-.78-.57,0,.45.18.48.31.95-.54-.04-.4-.91-.95-.95.14-.07.26-.08.35.03-.18-.53-.43-.06-.08-.81-.1-.27-.32-.07-.46-.15-.2.29.27.24.34.37-.22.02-.44.05-.67.15.19-.39.17-.75-.04-1.09-.11-.06-.27.15-.41.27-.16-.09.02-.23.15-.37-1.21-.4-1.92-1.61-3.06-2.34ZM58.51,14.05s-.03.04-.05.06c.14.14.29.27.44.4,0-.01.02-.02.03-.03.04-.25-.38-.09-.42-.42ZM53.7,9.14s.05-.1.09-.16c-.03-.02-.06-.05-.08-.07-.03.06-.04.13,0,.23ZM33.19,8.29c.46.65,1.5.03,2.17.23-.1.54-1.17-.12-1.46.37.47-.04.08.37.23.81.27.21.85.28,1.04-.18-.16-.03-.46.24-.44-.17.27.04.55-.15.94-.39.03.3-.11.39.14.46.07-.36.3.17.49.06.03-.22-.29-.47-.06-.6.17.3.43.43.7.53.42-.29.89-.44,1.35-.53-.03-.02-.06-.04-.09-.07.07-.18.16-.06.29.04.11-.02.22-.03.33-.04-.26-.55-.79-.55-1.22-.56.02-.28.22-.33.35-.48-.76.05-1.49.22-2.11.45l-.04-.38c-.93.3-1.8-.26-2.6.44ZM31.69,10c.29-.2.32.28.61.09-.03-.23-.15-.24-.19-.45-.12.14-.39.14-.42.36ZM28.01,12.24c.23.19.43.48.76.22-.13-.29-.15-.49.06-.54-.01.15.01.34.13.59.2-.3.44-.5.84-.44-.04-.52-.39.12-.48-.21.51-.38.56-.06,1.12-.13.17-.27-.31-.29-.14-.46.28.41.44-.11.67.3.78-.29.82-.36,1.54-.67.05.17.07.44.18.45-.03-.27.42-.09.3-.45-.15-.03-.33.02-.44-.14.92-.07,1.27-.65.45-1.34.18.47.18.57.01.86-.06-.35-.57-.37-.49,0,.08.15.31-.06.36.16-.99.1-1.8.41-2.81.41-.32.74-1.98.4-2.06,1.39ZM21.56,11.9c.11-.35.59-.14.41-.67-.11.23-.61.31-.41.67ZM18.94,14.44c.62-.64,2.14-1.36,1.96-2.12-.39.53-1.81,1.26-1.96,2.12ZM19.2,13.19c.18-.14.45-.25.28-.5-.16-.05-.33.07-.49.21l.21.29ZM19.28,12.24l.2.3.29-.2c-.15-.28-.33-.15-.49-.1ZM18.78,10.7c.1-.04.19.1.28.25.1-.09.31-.15.24-.3-.2.23-.48-.63-.44,0-.04-.06-.14-.07-.08.05ZM15.69,12.9c-.09-.38-.12-.39-.46-.71-.29.26.2.61.46.71ZM14.87,12.64c.11.12.14.23.16.34.09-.08.2.1.29.06-.08-.12.03-.12.14-.12-.13-.2-.25-.1-.37-.16.09-.11-.12-.16-.23-.12ZM13.08,13.48c.21.09.81.31.75.11-.26.14-.11-.25-.32-.35-.1.06-.18.2-.29.11.09-.11.29-.21.2-.35-.39.08-.12.22-.34.48ZM12.98,18.81c.28-.03.52-.2.78-.35-.16-.17-.26-.11-.41-.26-.12.36-.66.27-.36.6ZM12.44,16.52l.26.25c.02-.19.33-.36.04-.58l-.31.34ZM12.3,19.25c.08-.06.21.05.33.16.17-.22.18-.46-.03-.71-.2-.02-.57.32-.3.54ZM11.07,15.9c.22-.17.93-.14.66-.55-.16.2-.31.37-.37.05-.06.17-.48.32-.29.51ZM10.98,18.4c.41-.12.65-.72,1.3-1.15-.61-.73.14-.91.05-1.32-.83.17-.76.72-.56,1.35-.55-.03-1.07.51-.79,1.12ZM10.08,19.99c.54-.31.69-1.01,1.13-1.29l-.47-.38c.04.5-.26.47-.61.8.34.45-.25.45-.05.87ZM8.12,46.27c-.15.27.06.46.34.58.04-.28.29-.45-.1-.61-.05.12.2.37-.06.4-.08-.1.07-.41-.18-.37ZM7.78,42.74c-.1-.35.24-.21.36-.09.03-.1.16-.15.11-.31-.73,0,0-.61-.61-.77.06.4-.06.89.14,1.16ZM7.86,44.04c.09-.17.16-.35.32-.48-.42.14-.09-.26-.37-.21-.13.1-.2.62.05.69ZM8.28,43.1c.04-.24-.17-.31-.38-.37-.19.13.08.35.38.37ZM7.58,36.21c.04.2.1.39.41.47l.05-.31c-.21-.03-.36-.08-.46-.16ZM7.2,38.26c.02.26-.23.67.17.74.36-.14-.23-.52.29-.53.21.97.02,1.74.23,2.35.54-.85.21-1.5.38-2.44-.5.06-.62-.23-1.07-.12ZM7.41,44.39c-.21-.32.18-.61-.3-.77.28.13-.3.74.3.77ZM7.29,42.52c-.7.2-.12.87.06,1.02-.02-.32-.35-.73-.06-1.02ZM7.4,36.67c.06.19-.3.59.16.59-.06-.36.16-.42-.16-.59ZM7.1,33.27c.03.13-.24.38.02.43.05-.09.14-.02.23.06.12-.24-.07-.36-.25-.49ZM7,34.19c-.28-.04-.06.3.05.35-.03-.27.25-.19.22-.45-.29-.08-.33-.24-.49-.03.09.04.23.06.21.14ZM6.02,26.52c.16-.28.71-.52.38-.83.42.29.41-.25.67-.28-.36-.11-.25-.3-.6-.41-.37.32-.13.99-.44,1.51ZM6.83,31.54c-.03-.21.41-.56-.05-.64.18.33-.33.44.05.64ZM6.98,29.6c-.19.06-.46.56-.11.69,0-.38.25-.41.11-.69ZM5.91,27.07c.63.22.19-.71.73-.17.23-.26-.19-.55-.43-.5-.15.39-.05.37-.29.66ZM6.15,28.05c-.22.05-.28.39.06.5.09-.2.07-.37-.06-.5ZM5.96,30.71c.24-.45.29.05.43.23-.06-.54.02-.69-.26-1.1-.04.32-.62.59-.17.87ZM4.89,23.34c.31.28.31-.18.44-.31.14.26.24.05.38.31.13-.2.24-.39.02-.53-.1.08-.23.1-.41,0-.13.22-.22.5-.43.54ZM4.88,23.88c-.22.22-.5.22-.3.61.22-.23.49-.21.3-.61ZM6.06,47.06c-.01.12.04.26.1.41,0-.19,0-.39.07-.67.07.31.11.69.14,1.11.13.28.21.54.05.71.02.22.03.45.05.68.24,1.25.69,2.26.99,3.3-.16.02-.23-.08-.4-.04-.12.03-.11.11-.07.19.04.02.08.04.13.04,0,.05-.02.09-.05.13,0,.02.02.05.02.07.4-.03,0-.28.4-.31.42.51.63,1.76,1.05,2.34-.21.08-.18-.22-.43-.09.04.4.85-.01.6.47-.2.07-.31-.02-.36-.21-.25.38.33.6.42.79.07-.11.19-.23.33-.26-.05.1-.04.22.03.35-.04.03-.08.03-.12.02.01.04.03.09.04.13.11.03.07.33.34.09-.03.29.1.27.2.63-.16-.06-.25-.12-.35-.19.08.21.18.4.29.55.06-.01.08-.07-.01-.23.2.17.3.32.41.48.05,0,.09.01.15,0,.03.06,0,.1-.04.15.06.09.14.18.24.28.07-.03.14-.06.22-.1-.32.38.56,1.33.75,1.62-.56.21-.63-.7-1.18-.53.49.61.94,1.39,1.66,1.48,0,.5.22.91.5,1.28.04-.04.08-.09.14-.14-.09.32.29.54.63.24-.66-.05-.73-1.52-1.57-1.98-.04-.09.15-.18.26-.26-.61-.41-.75-1.2-1.01-1.82-.07.04-.13.07-.2.11.04-.05.11-.09.2-.12-.12-.28-.26-.53-.48-.68l.32-.17c-.51-.02-.47-.27-.48-.66.29.27.44-.07.62.4-.07-.47-.49-.81-.14-1.33-.16.07-.31.13-.29.22-.2-.03-.07-.58.03-.79-.06-.01-.16-.09-.25-.15-.04.04-.09.07-.15.09.03-.05.04-.1.05-.15-.09-.04-.17-.03-.22.1-.19-.54-.47-1.1-.71-1.69.19-.07.31-.04.4-.01.03-.15.1-.31.11-.4.11,0,.21,0,.37-.05-.38-.19.18-.29.18-.55-.06-.07-.24.03-.28-.07-.14-.21-.02-.36.35-.44-.06.43-.03.38.26.71l-.34.12c.1.15.09.28.02.4.22-.11.32-.19.47-.17.08-.02.15-.03.22-.05,0-.1-.17-.23.16-.25-.02.08-.05.16-.08.24.1,0,.18,0,.26.04.05-.12.12-.24.18-.33.17.09.13.3.05.56,0,.01.02.01.02.03-.01,0-.02,0-.03,0-.05.15-.11.31-.16.47.16.06.08.13-.05.22-.01.08-.01.16,0,.23-.05-.04-.09-.09-.11-.15-.06.05-.13.1-.16.16.33.02.47,0,.26.3.02,0,.05,0,.07,0,.05-.01.12-.02.2-.02-.02.01-.02.02-.04.03.1,0,.2,0,.29,0,.08.54.45,1.16.93,1.87-.09.03-.14-.01-.25.05.36.16.45.31.72.8.08-.04.16-.09.22-.13,0-.01,0-.03-.02-.04.02-.02.05-.02.07-.02,0-.01.01-.03,0-.04,0,.01.02.02.02.03.13,0,.29.09.25-.08.53-.02-.38.4.12.43-.04.01-.06.01-.1.02.13.15.29.29.46.44.08-.05.12-.1.11-.15.25,0,.15.13-.03.22.07.06.13.11.2.16.12-.04.24-.05.24.04.2-.12.32-.26.38-.39-.23-.03-.38-.13-.48-.28-.2.01-.46.11-.6,0,.19-.1.32-.22.43-.35-.1-.25-.19-.52-.37-.72.05.11.06.23-.22.33.02-.05.03-.09.04-.13-.19.09-.3.02-.35-.14.13-.06.18-.12.18-.18-.12-.03-.27-.05-.43-.08.61-.21-.02-1.24-.78-1-.19-.2.42-.63-.12-.51.33-.27.18-.59.11-.92-.2.05-.19.14-.16.23-.43.02.51-1.01-.39-.94.13-.04.19-.09.2-.15-.15-.05-.17.1-.39,0,.02-.24.14-.14.42-.24-.39-.04-.7-.19-1.02-.33.17-.06.44-.22.33-.5-.36.53-.77-.14-.24-.31-.06-.07-.46-.22-.5,0-.02-.04.11-.22.15-.39-.31-.12-.6-.25-.8-.44,0-.07,0-.15-.01-.22-.35.34-.44.77-.41,1.23-.26-.11-.29-.37-.24-.61-.19-.03-.3-.16-.33-.36-.26.02-.28.12-.4.18.04.05.08.1.15.14-.3.16-.53-.17-.58-.53-.14-.13-.3-.23-.44-.36.26,0,.34-.21.39-.5-.04,0-.07,0-.11.02.35-.56-.45-.65-.83-.97.44-.44.49.33.8.33.55-.21-.53-.37-.14-.7-.24-.23-.33.32-.59.11-.08-.73.3-1.78-.28-2.4-.16.04-.07.21-.07.33-.01,0-.01-.01-.02-.02.02.08-.03.13-.09.17.18.09.18.29.09.5-.22,0-.16-.25-.18-.43-.03.04-.05.08,0,.15-.26-.11-.4-.42.15-.43-.15-.13-.15-.12-.45-.13.13-.05.09-.41-.02-.16-.23-.17.47-.66.15-.91.1.03.2.07.36.05l-.03-.32c-.1.04-.21.09-.22.18.14-1.25-.24-2.83.35-3.99,0-.19-.33.01-.24.15-.28-.1-.07-.53.14-.55-.5-.67.06-.93-.25-1.71.83.01.17-1.02.7-.89.16-.36-.54-.03-.46-.23.01-.24.09-1.09.08-1.39l-.47-.09c.03-.33.18.06.38-.1-.4-.29.49-.55-.2-.88.1-.15.22-.13.37,0-.06-.15-.24-.63-.52-.45-.29-.03.15-.36-.3-.33.12-.13.21.04.35.08-.13-.67.36-1.34.26-2.02.14.14.26.17.37.02-.28-.08-.32-.61-.62-.45-.12-.16-.12-.48.04-.53-.07-.11-.27-.15-.66-.31-.06.45-.14,1.11.41,1.12-.06.15-.4-.05-.41.15.12.45.44.83.32,1.68-.26-.1.12-.45-.25-.5-.08.16-.14.96.22,1.19-.15.02-.31-.03-.52.15.31.48-.53.96.23,1.42-.07.15-.29.17-.3.38.02.22.35-.03.27-.21.49.62-.9,1.08-.45,1.55-.11.24-.25-.11-.48-.06.19.42.1.51.14.96.32-.32.21-.47.45-.88.35.41-.36.93,0,1.34-.15-.05-.24-.13-.22-.27-.25.5.26.34-.52.63-.12.26.18.27.22.44.34-.06-.02-.36.02-.5.17.14.35.27.58.37-.41.14-.65.41-.75.8.03.12.3.08.48.1.05.18-.18.15-.36.16.57,1.14.22,2.49.51,3.82.17.82.6,1.75.55,2.35ZM10.66,54.18c.02.09-.17.15-.3.21.06.07.24-.05.28.05.07-.11.11-.32.11-.52-.1-.03-.22-.36-.35-.54-.06-.01-.13-.02-.22,0,.06-.18.01-.37.03-.56-.08.06-.17.12-.28.18.16-.22-.06-.19-.14-.36-.29.07-.3.21-.25.36.08,0,.17-.03.3-.15.04.17.06.34.08.5,0,0,0,0,.02-.01,0,.01-.01.03-.01.04.05.39.14.72.74.81ZM10.75,52.78s0,0,0,0c0,0,0,0,0,0-.06.07-.05.16-.2.22.09.08.25.32.4.36-.04-.21.01-.46.1-.69-.03,0-.06,0-.11.02-.11.02-.16.05-.19.09ZM10.68,54.51c.02.23.39.49.49.2-.17.07.02-.51-.49-.2ZM10.89,57.56c.14.11.13.53.38.43-.23-.22.23-.73-.38-.43ZM21.56,69.95c-.06-.34-.44-.77-.89-.57.1.13.5.13.21.42-.18-.21-.51-.26-.96-.34.18-.24.34-.22.21-.44-.3.22-.11-.33-.33-.37-.16.14-.1.54-.35.48.07-.34-.03-.6-.16-.86-1.37-.17-2.28-1.33-3.01-1.7.04.06-.01.14-.09.22.07.31.31.56.52.77-.14.12-.26.12-.38.1.79,1.05,1.94,1.8,3,2.23l-.22.31c.89.4,1.16,1.39,2.22,1.42.09-.79-1.09-1.03-1.46-1.62.44-.33.79.87,1.33.71-.37-.29.19-.33.38-.75ZM22.17,70.04c.16-.36.34-.45.5-.68-.52-.08-.63-.71-1.13-.42.27.46.3.79.63,1.09ZM23.57,71.36c-.35-.04-.05-.43-.39-.47-.13.19-.05.27-.16.46.18-.03.38.16.55.02ZM27.8,72.16c-.05-.29,0-.65-.42-.67-.1.3-.22.47-.4.36.11-.1.22-.26.3-.53-.35.08-.66.08-.92-.24-.32.42.37.17.22.48-.64-.06-.46-.33-.92-.65-.31.09.04.43-.2.43.07-.5-.4-.21-.29-.67-.77-.31-.85-.28-1.59-.53.07-.16.24-.37.16-.46-.16.22-.37-.22-.52.13.09.12.26.21.23.39-.73-.56-1.38-.37-1.23.69.18-.47.25-.55.56-.64-.19.3.17.66.36.34.04-.17-.26-.16-.16-.36.8.59,1.61.9,2.36,1.58.74-.34,1.74,1.03,2.46.34ZM32.36,76.73c-.32.18-.53-.29-.76.23.24-.1.66.18.76-.23ZM33.63,79.49c-.11-.03-.07-.2-.04-.37-.14,0-.33-.09-.38.06.31-.03-.07.79.33.29-.01.07.05.15.09.01ZM34.33,77.65l-.35-.05c-.07.31.14.33.3.4l.05-.36ZM34.98,77.36c-.23-.02-.5-.12-.55.18.08.15.29.17.51.17l.04-.36ZM36.01,76.6c-.89.06-2.5-.42-2.88.26.64-.13,2.18.28,2.88-.26ZM37.39,79.93c-.18.34-.17.37-.13.84.39,0,.26-.58.13-.84ZM37.93,80.3c-.12,0-.08-.21-.18-.24-.02.14-.11.07-.19,0-.04.24.12.24.17.37-.14.02-.02.2.09.24,0-.16.05-.26.1-.36ZM39.72,81.25c-.1-.21-.39-.78-.48-.59.28.07-.09.26,0,.48.11.02.27-.03.29.11-.14.02-.35-.04-.38.13.34.2.24-.08.57-.13ZM42.24,79.42l-.03-.36c-.15.13-.48.04-.42.4l.45-.04ZM42.83,80.8c-.28-.02-.78-.53-.86-.03.26-.04.48-.07.3.21.16-.08.57.09.56-.18ZM44.57,79c-.38-.18-.96.1-1.74-.01-.03.95-.72.58-.92.94.73.43,1.04-.02,1.32-.63.38.39,1.13.34,1.34-.3ZM46.31,78.43c-.61-.13-1.19.28-1.7.2l.09.59c.3-.4.51-.17.99-.18.05-.56.49-.17.62-.62ZM53.47,76.39c-.14.02-.29.03-.45.02-.01,0-.02-.01-.03-.02-.09.04-.15.12-.13.26-.09-.38-.31-.23-.51-.21l.08.2c-.06-.08-.13-.12-.21-.13.09.23-.04.33.13.6.42,0,.68-.48,1.12-.73ZM52.4,79.41c-.04-.41-.35-.07-.53-.06.08-.29-.14-.2-.07-.49-.23.06-.44.13-.37.38.13,0,.23.08.3.28.24-.08.5-.22.68-.11ZM53.4,78.76c-.32.02-.51-.17-.63.25.31-.01.51.17.63-.25ZM56.94,76.52c-.06-.23-.14-.4-.37-.43-.33.2-.04.32.05.6.11-.06.22-.11.32-.17ZM57.53,76.21s-.09.04-.13.07c.05-.02.09-.05.13-.07ZM63.61,71.72c-.06.05-.11.1-.17.16-.17.17-.41.23-.36.15-.31.59-1.14,1.28-1.68.72.29.69-.6.21-.77.85-.06-.13-.14-.2-.22-.25-.06.1-.21.07-.35.3-.17-.17-.08-.29.06-.35-.16.03-.31.14-.44.29.03.04.06.08.08.12-.11.06-.19.11-.26.16-.04.09-.08.18-.09.28.41.23.88-.1,1.14-.48-.02.92-1.34.91-1.43,1.7,1.23-.7,2.39-1.44,3.98-2.63.25-.09-.01-.31,0-.46.17.13.34-.29.52-.11.03-.13.08-.27,0-.42ZM67.72,65.87c-.17.16-.33.31-.5.43,0,0,0,.01,0,.02.15.09.05.16,0,.24,0,.04,0,.08-.02.11,0,.02.02.03.05.05.51.13.65-.5.48-.85ZM68.74,65.02c-.11.05-.17,0-.22-.06-.22.29-.45.56-.7.81,0,.01,0,.03.01.04.5-.44.62-.47.9-.78ZM69.44,65.09c-.29.05-.68.26-.35.66.15-.32.53-.69.35-.66ZM69.53,64.15c-.18.29-.43.44-.79.49-.03.04-.05.08-.08.12.36.21,1.35-.07.87-.61ZM69.89,63.61c-.23.01-.52.4-.11.59.12-.2.19-.4.11-.59ZM70.68,62.6c-.31.06-.46.58-.69.86.45.18.86-.51.69-.86ZM71.28,65.3c-.06.08-.12.16-.18.24l.4.29.23-.32c-.12-.13-.3-.18-.45-.21ZM72.68,58.68s-.06.07-.08.11c0,.07,0,.13.01.2-.01,0-.03,0-.04,0,.04.27.33.54.07.6-.11-.05-.04-.47-.28-.25.28.23-.2.23-.21.41l.43.22c.65-.21.33-.85.1-1.29ZM72.65,58c-.03.14-.05.29-.05.44.06-.08.12-.15.17-.23-.08-.1-.11-.17-.12-.21ZM74.88,49.21l-.35-.07-.03.17s.03-.02.05-.03c.03.08.05.15.05.21.18,0,.22-.16.29-.29ZM74.69,40.11c-.18.22-.23.51-.31.79.23,0,.26-.11.47-.11-.17-.34.27-.66-.17-.68ZM74.87,39.32c-.01.1-.18.11-.35.12.04.28.19.45.52.48.16-.13.18-.63-.17-.6ZM78.64,43.04s-.05.02-.1.05c.08.05.12.1.16.14,0-.07-.03-.14-.06-.19ZM77.75,44.35s0,.01,0,.02c0,0,0-.01,0-.02ZM77.36,45.68c0,.12-.21.07-.25.17.14.03.06.11-.02.18.23.05.25-.1.38-.15.01.14.2.03.25-.07-.16-.01-.26-.07-.35-.12ZM76.03,38.94l.6-.06c-.38-.32-.15-.52-.13-1-.56-.08-.14-.5-.58-.65-.16.6.22,1.2.12,1.71ZM76.31,50.03c.06.01.15-.05.02-.09-.04.1-.21.06-.37.02,0,.14-.11.32.05.38-.02-.31.78.11.31-.31ZM76.72,41.79l-.02-.45h-.36c.12.17.02.5.38.45ZM77.19,41.69c.47-.71.03-1.04-.56-1.35.41-.36.4-1.11-.23-1.35-.2.37.05.97-.1,1.73.95.08.54.74.89.97ZM77.79,46.38c0-.08-.02-.13-.05-.17-.04,0-.07,0-.13.01.05-.01.07-.03.1-.05-.17-.13-.55-.05-.75.03.33.2.36.19.83.17ZM77.82,45.71s-.03-.06-.04-.09c-.02.03-.03.08-.06.1.04,0,.06,0,.1,0ZM75.68,54.27c.06.39-.37.07-.37.37.56-.3.45.43.91.3-.39-.15-.26-.49-.55-.68ZM50.14,79.28c.24.15.5.67.45.49.19-.25-.24-.62-.45-.49ZM45.39,81.17c-.25-.12-.88-.29-.49-.65-.37.09-.7-.2-.83.24.2.11.67.17.46.54.18-.33,1.04.13.86-.14ZM45.73,92.9c-.09.18-.08.16-.4.78.54-.18,1.04-.39,1-.98-.17.09-.66-.05-.6.21ZM21.38,77.37c.06.16.28.26.19.49-.45-.16-.74-1.09-.88-.44.28-.17.47.4.46.63.22-.19,1.24-.11.97-.2-.51.01-.46-.67-.74-.49ZM19.93,75.4c-.31.46-.91.67-.8,1.2.09-.22.23-.14.35-.22-.1-.4.32-.93.75-.55.28-.31-.17-.3-.3-.44ZM16.87,75.21c-.02-.24-.29-.29-.48-.17.53.55.96.3,1.33.85.09-.12.17-.22.29-.1-.06-.42.43-.61.2-.86-.23-.02-.1.5-.36.76l-.33-.21.32-.51c-.47.14-.88-.28-.97.23ZM11.18,76.88c.04.27.58.44.06.81.66.44.39-.96-.06-.81ZM-1.93,56.68c.07.17.01.29-.11.39-.28-.26-.15-.33-.26-.71-.22.05-.21.2-.42.26.04-.41-.43-.51-.62-.71.13.3-.15.41-.01.71.55.13.52.47.91,1.07.21-.12.28.05.42.07-.09-.26.07-.43.14-.63.1.06.65.11.6-.11-.46-.03-.26-.31-.64-.33ZM79.21,34.37c.14-.13.32-.23.4-.39-.16.04-.27.01-.37-.02.05.17-.06.25-.31.27.04.44.43.45.64.68-.04.3-.33.46-.47.7.37.33.07,1.08.4,1.73-.13-.47.24-.63.48-.87-.36-.31-.12-.59-.51-.82.22-.03.24-.12.08-.22.29-.04.58-.09.55-.31-.37-.15-.52-.59-.89-.74ZM3.52,60.61c-.8.54-1.33.4-1.77,0,.55-.24.12-.72.43-1.01-.45.26-.45-.18-.67-.02.13-.13.2-.27.2-.43-.53.28-.61-.42-.86-.74-.41.19-.27.24-.66.29-.15.6.26,1.58.25,1.98,1.01.55.18,2.57,1.12,3.54.63.64,1.78.43,2.85-.64.35-.93.3-2.43-.89-2.96Z"/>
</svg>